<svg width="446" height="197" viewBox="0 0 446 197" fill="none" xmlns="http://www.w3.org/2000/svg">
<path d="M443.095 85.6421L386.508 55.1603C384.983 54.3391 383.082 54.9092 382.261 56.4337L364.202 89.958C363.381 91.4825 363.951 93.3841 365.476 94.2053L422.063 124.687C423.587 125.508 425.489 124.938 426.31 123.414L444.369 89.8894C445.19 88.3649 444.62 86.4633 443.095 85.6421Z" fill="#232323"/>
<path opacity="0.7" d="M443.095 85.6421L386.508 55.1603C384.983 54.3391 383.082 54.9092 382.261 56.4337L364.202 89.958C363.381 91.4825 363.951 93.3841 365.476 94.2053L422.063 124.687C423.587 125.508 425.489 124.938 426.31 123.414L444.369 89.8894C445.19 88.3649 444.62 86.4633 443.095 85.6421Z" fill="white"/>
<path opacity="0.2" d="M380.789 59.2007L398.397 92.2583C399.073 93.5176 400.107 94.5481 401.369 95.2195C402.631 95.8908 404.063 96.1728 405.485 96.0298L442.314 92.3946L404.826 97.9155C403.188 98.1578 401.515 97.864 400.058 97.0778C398.6 96.2917 397.436 95.0554 396.738 93.5533L380.789 59.2007Z" fill="#232323"/>
<path d="M337.825 53.0889C338.438 40.4566 347.799 14.9875 359.182 7.19453C370.565 -0.598434 363.067 10.1936 363.067 10.1936C363.067 10.1936 373.859 -0.303082 379.539 0.0149975C385.219 0.333078 379.539 6.831 379.539 6.831C379.539 6.831 391.24 -0.371242 396.624 0.0149975C402.009 0.401238 396.624 6.62653 396.624 6.62653C396.624 6.62653 406.212 -0.189483 410.097 3.01404C413.982 6.21756 360.363 41.638 354.388 56.0425C348.413 70.447 337.212 65.8348 337.825 53.0889Z" fill="#232323"/>
<path opacity="0.4" d="M337.825 53.0889C338.438 40.4566 347.799 14.9875 359.182 7.19453C370.565 -0.598434 363.067 10.1936 363.067 10.1936C363.067 10.1936 373.859 -0.303082 379.539 0.0149975C385.219 0.333078 379.539 6.831 379.539 6.831C379.539 6.831 391.24 -0.371242 396.624 0.0149975C402.009 0.401238 396.624 6.62653 396.624 6.62653C396.624 6.62653 406.212 -0.189483 410.097 3.01404C413.982 6.21756 360.363 41.638 354.388 56.0425C348.413 70.447 337.212 65.8348 337.825 53.0889Z" fill="white"/>
<path d="M383.901 51.1807L391.058 55.7247C391.171 55.7947 391.257 55.9008 391.302 56.0258C391.348 56.1509 391.349 56.2875 391.307 56.4136C391.265 56.5398 391.182 56.648 391.071 56.7209C390.959 56.7938 390.827 56.827 390.694 56.8152L383.174 56.2245L383.81 61.9954C383.829 62.1314 383.803 62.2698 383.736 62.3899C383.669 62.5099 383.566 62.6052 383.44 62.6614C383.315 62.7177 383.175 62.7319 383.041 62.7019C382.907 62.672 382.786 62.5995 382.697 62.4952L378.357 57.6331L383.901 51.1807Z" fill="#232323"/>
<path opacity="0.3" d="M383.901 51.1807L391.058 55.7247C391.171 55.7947 391.257 55.9008 391.302 56.0258C391.348 56.1509 391.349 56.2875 391.307 56.4136C391.265 56.5398 391.182 56.648 391.071 56.7209C390.959 56.7938 390.827 56.827 390.694 56.8152L383.174 56.2245L383.81 61.9954C383.829 62.1314 383.803 62.2698 383.736 62.3899C383.669 62.5099 383.566 62.6052 383.44 62.6614C383.315 62.7177 383.175 62.7319 383.041 62.7019C382.907 62.672 382.786 62.5995 382.697 62.4952L378.357 57.6331L383.901 51.1807Z" fill="white"/>
<path d="M283.365 22.7349C283.365 22.7349 293.271 15.9189 308.244 20.3266C308.244 20.3266 312.538 40.1157 324.329 46.7045C330.805 50.317 346.64 49.9989 359.182 45.9548C374.064 41.1381 381.334 41.1381 384.038 46.7045C386.741 52.2709 383.742 58.0645 372.359 60.7682C360.977 63.4719 351.911 83.2383 331.304 83.4882C310.697 83.7381 299.746 63.0402 304.949 44.8642C300.023 35.5724 292.531 27.8914 283.365 22.7349Z" fill="#232323"/>
<path opacity="0.5" d="M283.365 22.7349C283.365 22.7349 293.271 15.9189 308.244 20.3266C308.244 20.3266 312.538 40.1157 324.329 46.7045C330.805 50.317 346.64 49.9989 359.182 45.9548C374.064 41.1381 381.334 41.1381 384.038 46.7045C386.741 52.2709 383.742 58.0645 372.359 60.7682C360.977 63.4719 351.911 83.2383 331.304 83.4882C310.697 83.7381 299.746 63.0402 304.949 44.8642C300.023 35.5724 292.531 27.8914 283.365 22.7349Z" fill="white"/>
<path d="M378.357 50.4535C378.357 50.6558 378.297 50.8534 378.185 51.0216C378.073 51.1897 377.913 51.3208 377.726 51.3981C377.539 51.4755 377.334 51.4958 377.135 51.4563C376.937 51.4169 376.755 51.3195 376.612 51.1765C376.469 51.0335 376.372 50.8514 376.332 50.653C376.293 50.4547 376.313 50.2491 376.39 50.0623C376.468 49.8755 376.599 49.7158 376.767 49.6035C376.935 49.4911 377.133 49.4312 377.335 49.4312C377.606 49.4312 377.866 49.5389 378.058 49.7306C378.25 49.9224 378.357 50.1824 378.357 50.4535V50.4535Z" fill="#232323"/>
<path d="M326.51 67.0843C314.31 70.4014 287.182 69.3563 276.276 60.9499C265.371 52.5435 277.912 56.4059 277.912 56.4059C277.912 56.4059 264.621 49.3854 263.144 43.8871C261.667 38.3889 269.688 41.7514 269.688 41.7514C269.688 41.7514 259.236 32.8679 257.873 27.6423C256.51 22.4167 264.144 25.5975 264.144 25.5975C264.144 25.5975 254.624 18.5998 256.555 13.8967C258.487 9.19368 308.675 49.2718 324.193 50.5214C339.711 51.771 338.87 63.7217 326.51 67.0843Z" fill="#232323"/>
<path opacity="0.4" d="M326.51 67.0843C314.31 70.4014 287.182 69.3563 276.276 60.9499C265.371 52.5435 277.912 56.4059 277.912 56.4059C277.912 56.4059 264.621 49.3854 263.144 43.8871C261.667 38.3889 269.688 41.7514 269.688 41.7514C269.688 41.7514 259.236 32.8679 257.873 27.6423C256.51 22.4167 264.144 25.5975 264.144 25.5975C264.144 25.5975 254.624 18.5998 256.555 13.8967C258.487 9.19368 308.675 49.2718 324.193 50.5214C339.711 51.771 338.87 63.7217 326.51 67.0843Z" fill="white"/>
<path d="M246.536 11.8066C246.446 11.8288 246.353 11.8288 246.263 11.8066C244.15 11.0569 241.992 10.3525 239.811 9.69367C239.595 9.62555 239.415 9.47552 239.309 9.27583C239.202 9.07614 239.179 8.84274 239.243 8.62582C239.311 8.41014 239.461 8.22981 239.661 8.12359C239.86 8.01737 240.094 7.99375 240.311 8.05782C242.583 8.7167 244.696 9.44374 246.831 10.3298C247.022 10.3948 247.182 10.5259 247.284 10.6993C247.386 10.8726 247.423 11.0768 247.387 11.2747C247.351 11.4726 247.246 11.6512 247.09 11.778C246.933 11.9047 246.737 11.9713 246.536 11.9657V11.8066Z" fill="#232323"/>
<path d="M109.216 196.225C108.991 196.225 108.775 196.137 108.614 195.98C108.452 195.823 108.359 195.609 108.353 195.384C108.353 195.159 108.441 194.943 108.598 194.782C108.755 194.62 108.969 194.527 109.194 194.521C113.713 194.457 118.22 194.016 122.667 193.203C122.889 193.163 123.119 193.212 123.306 193.34C123.493 193.467 123.622 193.663 123.666 193.885C123.689 193.995 123.69 194.109 123.668 194.22C123.646 194.331 123.601 194.436 123.538 194.529C123.474 194.623 123.392 194.702 123.297 194.763C123.202 194.824 123.096 194.865 122.985 194.884C118.441 195.716 113.835 196.164 109.216 196.225V196.225ZM95.5844 195.498C90.9997 195.009 86.4478 194.25 81.9524 193.226C81.7298 193.177 81.5357 193.042 81.4123 192.85C81.2889 192.659 81.2462 192.426 81.2935 192.203C81.3475 191.985 81.4845 191.797 81.6755 191.678C81.8664 191.559 82.0962 191.519 82.3159 191.567C86.7402 192.564 91.215 193.322 95.7207 193.839C95.9228 193.872 96.1065 193.976 96.2391 194.132C96.3717 194.288 96.4444 194.487 96.4444 194.691C96.4444 194.896 96.3717 195.094 96.2391 195.25C96.1065 195.406 95.9228 195.51 95.7207 195.543L95.5844 195.498ZM135.958 190.954C135.794 190.955 135.634 190.908 135.497 190.819C135.36 190.73 135.252 190.603 135.185 190.454C135.136 190.352 135.109 190.24 135.104 190.127C135.1 190.013 135.118 189.9 135.158 189.794C135.199 189.688 135.26 189.591 135.339 189.509C135.418 189.427 135.512 189.362 135.617 189.318C139.743 187.539 143.574 185.141 146.977 182.207C147.151 182.074 147.369 182.012 147.586 182.034C147.804 182.056 148.005 182.159 148.15 182.324C148.294 182.488 148.37 182.701 148.364 182.92C148.357 183.139 148.267 183.347 148.113 183.502C144.573 186.538 140.599 189.027 136.321 190.886C136.196 190.955 136.056 190.994 135.912 190.999L135.958 190.954ZM68.9565 189.409C68.867 189.431 68.7734 189.431 68.6839 189.409C64.3671 187.978 60.0276 186.296 55.8244 184.456C55.6381 184.35 55.4981 184.178 55.4317 183.974C55.3653 183.77 55.3772 183.548 55.4651 183.353C55.553 183.157 55.7107 183.001 55.9073 182.915C56.1039 182.829 56.3254 182.82 56.5287 182.888C60.6637 184.706 64.9351 186.364 69.2292 187.796C69.4417 187.873 69.6155 188.03 69.7133 188.234C69.811 188.438 69.8248 188.672 69.7517 188.886C69.6875 189.044 69.5771 189.178 69.4352 189.271C69.2932 189.364 69.1263 189.412 68.9565 189.409V189.409ZM43.9645 178.367C43.8312 178.407 43.6889 178.407 43.5555 178.367C39.4887 176.095 35.5354 173.641 31.8547 171.074C31.7637 171.01 31.6863 170.928 31.6268 170.834C31.5672 170.74 31.5268 170.635 31.5078 170.526C31.4888 170.416 31.4917 170.303 31.5161 170.195C31.5405 170.086 31.5861 169.983 31.6503 169.892C31.7144 169.801 31.7959 169.724 31.89 169.664C31.984 169.605 32.0889 169.565 32.1986 169.546C32.3083 169.527 32.4207 169.529 32.5293 169.554C32.638 169.578 32.7407 169.624 32.8317 169.688C36.4669 172.21 40.352 174.641 44.3962 176.89C44.4941 176.945 44.5801 177.018 44.6492 177.106C44.7184 177.194 44.7693 177.295 44.7989 177.403C44.8285 177.511 44.8363 177.623 44.8217 177.734C44.8072 177.845 44.7707 177.952 44.7143 178.049C44.6182 178.196 44.4805 178.312 44.3187 178.38C44.1568 178.449 43.9782 178.468 43.8055 178.435L43.9645 178.367ZM156.292 173.164C156.159 173.205 156.017 173.205 155.883 173.164C155.785 173.11 155.699 173.037 155.63 172.949C155.561 172.861 155.51 172.76 155.481 172.652C155.451 172.544 155.443 172.431 155.458 172.32C155.472 172.209 155.509 172.102 155.565 172.005C156.269 170.779 156.928 169.506 157.519 168.188C158.784 165.406 159.773 162.507 160.473 159.532C160.532 159.312 160.673 159.123 160.868 159.005C161.062 158.886 161.295 158.847 161.518 158.896C161.737 158.955 161.924 159.097 162.039 159.293C162.153 159.488 162.187 159.721 162.131 159.941C161.39 163.014 160.363 166.011 159.064 168.893C158.451 170.256 157.769 171.596 157.042 172.869C156.945 173.014 156.806 173.127 156.644 173.192C156.482 173.257 156.304 173.271 156.133 173.232L156.292 173.164ZM21.5626 162.667C21.3626 162.665 21.1699 162.592 21.0173 162.463C17.5572 159.407 14.3155 156.112 11.3159 152.603C11.159 152.441 11.0713 152.225 11.0713 152C11.0713 151.776 11.159 151.56 11.3159 151.398C11.4732 151.243 11.6854 151.156 11.9066 151.156C12.1277 151.156 12.34 151.243 12.4973 151.398C15.4427 154.834 18.6236 158.06 22.017 161.054C22.1738 161.216 22.2616 161.432 22.2616 161.656C22.2616 161.881 22.1738 162.097 22.017 162.259C21.9607 162.382 21.8755 162.489 21.7687 162.572C21.6619 162.655 21.5366 162.711 21.4035 162.736L21.5626 162.667ZM162.836 146.9C162.723 146.9 162.612 146.877 162.509 146.834C162.405 146.79 162.311 146.726 162.233 146.646C162.155 146.565 162.093 146.47 162.052 146.365C162.011 146.261 161.992 146.149 161.995 146.036C161.962 141.518 161.544 137.011 160.745 132.563C160.705 132.341 160.754 132.111 160.882 131.924C161.009 131.737 161.205 131.608 161.427 131.564C161.652 131.53 161.882 131.585 162.068 131.716C162.254 131.847 162.382 132.045 162.427 132.268C163.244 136.813 163.67 141.419 163.699 146.036C163.699 146.265 163.608 146.485 163.446 146.647C163.284 146.809 163.065 146.9 162.836 146.9V146.9ZM158.292 119.954C158.108 119.952 157.929 119.892 157.782 119.781C157.635 119.671 157.527 119.516 157.474 119.34C156.315 115.364 154.884 111.139 153.134 106.413C153.091 106.307 153.069 106.194 153.071 106.08C153.073 105.965 153.098 105.853 153.145 105.749C153.191 105.644 153.259 105.551 153.343 105.474C153.427 105.396 153.526 105.337 153.634 105.299C153.845 105.225 154.077 105.236 154.28 105.329C154.484 105.422 154.643 105.591 154.725 105.799C156.497 110.571 157.928 114.887 159.109 118.841C159.174 119.058 159.15 119.291 159.044 119.491C158.938 119.69 158.757 119.84 158.541 119.908L158.292 119.954ZM148.885 94.1667C148.728 94.1679 148.573 94.1235 148.44 94.0388C148.307 93.9542 148.201 93.8329 148.136 93.6896C146.682 90.0544 144.705 85.8739 142.637 81.4435V81.2163C142.578 81.0183 142.592 80.8055 142.676 80.6168C142.761 80.4281 142.91 80.2759 143.097 80.1879C143.284 80.0999 143.496 80.0819 143.696 80.1372C143.895 80.1925 144.068 80.3174 144.182 80.4892V80.7165C146.273 85.2605 148.227 89.3728 149.681 92.9398C149.772 93.1539 149.776 93.3955 149.691 93.6124C149.606 93.8292 149.439 94.0039 149.226 94.0985L148.885 94.1667ZM137.525 69.1747C137.358 69.18 137.193 69.1352 137.052 69.0462C136.91 68.9571 136.798 68.8279 136.73 68.6749C134.685 63.9264 133.05 59.7232 131.755 55.8381C131.682 55.6241 131.695 55.3899 131.793 55.186C131.891 54.9821 132.065 54.8246 132.277 54.7475C132.494 54.6755 132.731 54.6925 132.935 54.7947C133.14 54.8969 133.295 55.076 133.368 55.2928C134.64 59.1325 136.253 63.2902 138.298 67.9933C138.343 68.096 138.366 68.2067 138.367 68.3187C138.369 68.4307 138.347 68.5418 138.305 68.6455C138.263 68.7492 138.2 68.8435 138.121 68.9226C138.042 69.0018 137.947 69.0643 137.844 69.1065C137.768 69.1871 137.674 69.2493 137.571 69.2883L137.525 69.1747ZM129.21 43.1376C129.007 43.1348 128.811 43.0603 128.657 42.9273C128.503 42.7943 128.401 42.6113 128.369 42.4105C127.979 39.9761 127.782 37.5147 127.779 35.0492C127.76 32.8465 127.958 30.6472 128.369 28.4832C128.435 28.2816 128.572 28.1112 128.755 28.0043C128.938 27.8975 129.154 27.8617 129.362 27.9038C129.57 27.9459 129.755 28.063 129.882 28.2327C130.009 28.4023 130.069 28.6128 130.051 28.824C129.657 30.8754 129.467 32.9605 129.483 35.0492C129.49 37.4307 129.68 39.8081 130.051 42.1606C130.078 42.3822 130.021 42.606 129.89 42.7872C129.759 42.9683 129.565 43.0935 129.346 43.1376H129.21ZM135.14 17.3277C134.942 17.333 134.749 17.2687 134.595 17.1459C134.438 16.9847 134.35 16.7687 134.35 16.5438C134.35 16.3189 134.438 16.1029 134.595 15.9417C137.645 12.3783 141.356 9.43876 145.523 7.28541C145.722 7.17943 145.955 7.15576 146.172 7.21947C146.388 7.28317 146.571 7.42918 146.682 7.62621C146.78 7.82932 146.797 8.06231 146.73 8.27764C146.662 8.49296 146.515 8.67441 146.318 8.78493C142.35 10.837 138.816 13.6376 135.912 17.0323C135.837 17.1578 135.731 17.2616 135.603 17.3333C135.476 17.405 135.332 17.4422 135.185 17.4412L135.14 17.3277ZM226.747 6.19485H226.565C222.203 5.28605 217.682 4.51357 213.115 3.92285C213.004 3.90891 212.897 3.87302 212.8 3.81729C212.704 3.76156 212.619 3.6871 212.551 3.59826C212.484 3.50942 212.434 3.40798 212.406 3.29987C212.378 3.19176 212.372 3.07916 212.388 2.96862C212.402 2.85781 212.438 2.75088 212.493 2.65409C212.549 2.55731 212.624 2.47259 212.712 2.4049C212.801 2.33721 212.903 2.28791 213.011 2.25987C213.119 2.23182 213.232 2.22561 213.342 2.24158C217.886 2.8323 222.43 3.60478 226.974 4.51358C227.178 4.56051 227.358 4.67978 227.48 4.84927C227.603 5.01876 227.659 5.22694 227.64 5.43514C227.621 5.64334 227.526 5.83742 227.374 5.98132C227.223 6.12522 227.024 6.20917 226.815 6.21758L226.747 6.19485ZM158.587 4.26366C158.477 4.27559 158.365 4.26565 158.258 4.23443C158.152 4.20321 158.052 4.15132 157.966 4.0817C157.879 4.01208 157.807 3.9261 157.754 3.82868C157.701 3.73126 157.667 3.62429 157.655 3.51389C157.643 3.4035 157.653 3.29183 157.685 3.18528C157.716 3.07872 157.768 2.97935 157.837 2.89285C157.907 2.80635 157.993 2.73441 158.09 2.68113C158.188 2.62786 158.295 2.5943 158.405 2.58237C162.892 1.57575 167.449 0.91494 172.037 0.605737C172.263 0.59318 172.484 0.669374 172.654 0.818009C172.824 0.966643 172.928 1.17589 172.946 1.40093C172.955 1.51319 172.942 1.62617 172.907 1.73316C172.871 1.84015 172.815 1.93897 172.741 2.02374C172.667 2.10852 172.576 2.17751 172.475 2.22664C172.373 2.27577 172.263 2.30403 172.151 2.30974C167.639 2.60148 163.157 3.24719 158.746 4.24093L158.587 4.26366ZM199.483 2.67325C195.53 2.40061 190.827 2.10525 185.851 2.01437C185.626 2.00844 185.412 1.91488 185.255 1.75361C185.098 1.59234 185.01 1.37611 185.01 1.15101C185.01 1.03868 185.033 0.927472 185.076 0.823972C185.12 0.720471 185.184 0.626778 185.264 0.548413C185.345 0.470048 185.44 0.408608 185.545 0.367724C185.65 0.326839 185.761 0.30733 185.874 0.310366C190.895 0.423966 195.643 0.696608 199.506 0.969248C199.618 0.974954 199.728 1.00322 199.83 1.05235C199.931 1.10148 200.022 1.17047 200.096 1.25524C200.17 1.34001 200.226 1.43884 200.261 1.54583C200.297 1.65282 200.31 1.76579 200.301 1.87805C200.317 2.0832 200.26 2.28751 200.139 2.45415C200.018 2.62078 199.842 2.73877 199.642 2.78685L199.483 2.67325Z" fill="#232323"/>
<path d="M3.88642 141.697C3.73406 141.7 3.58381 141.661 3.45175 141.585C3.31969 141.509 3.21077 141.398 3.13666 141.265C1.98767 139.271 0.963312 137.207 0.0694642 135.085C0.0248747 134.983 0.00127438 134.872 5.02095e-05 134.76C-0.00117396 134.648 0.0199983 134.537 0.0623312 134.433C0.104664 134.329 0.167299 134.235 0.246557 134.156C0.325814 134.077 0.420101 134.014 0.523866 133.972C0.732092 133.888 0.964788 133.889 1.17262 133.974C1.38044 134.059 1.54706 134.221 1.63714 134.427C2.51451 136.481 3.50823 138.483 4.61346 140.425C4.69835 140.551 4.74623 140.699 4.75171 140.851C4.75719 141.003 4.72005 141.154 4.64447 141.286C4.5689 141.418 4.45789 141.527 4.32396 141.6C4.19003 141.672 4.03849 141.706 3.88642 141.697V141.697Z" fill="#232323"/>
</svg>
