<svg width="750" height="500" viewBox="0 0 750 500" fill="none" xmlns="http://www.w3.org/2000/svg">
<g clip-path="url(#clip0_166_100)">
<path d="M165.515 499.896H207.73C207.874 499.896 208.012 499.838 208.114 499.736C208.217 499.634 208.274 499.496 208.274 499.351V398.786C208.271 398.642 208.213 398.505 208.111 398.404C208.01 398.302 207.873 398.244 207.73 398.241H165.515C165.371 398.241 165.232 398.299 165.13 398.401C165.028 398.503 164.971 398.641 164.971 398.786V499.351C164.971 499.496 165.028 499.634 165.13 499.736C165.232 499.838 165.371 499.896 165.515 499.896ZM207.207 498.807H166.059V399.33H207.185L207.207 498.807Z" fill="#263238"/>
<path d="M224.824 499.895H267.06C267.204 499.895 267.343 499.838 267.445 499.736C267.547 499.634 267.604 499.495 267.604 499.351V422.043C267.604 421.899 267.547 421.76 267.445 421.658C267.343 421.556 267.204 421.499 267.06 421.499H224.824C224.679 421.499 224.541 421.556 224.439 421.658C224.337 421.76 224.279 421.899 224.279 422.043V499.351C224.279 499.495 224.337 499.634 224.439 499.736C224.541 499.838 224.679 499.895 224.824 499.895ZM266.516 498.806H225.401V422.587H266.516V498.806Z" fill="#263238"/>
<path d="M284.199 499.895H326.392C326.536 499.895 326.674 499.838 326.777 499.736C326.879 499.634 326.936 499.495 326.936 499.351V454.208C326.933 454.064 326.875 453.927 326.773 453.826C326.672 453.724 326.535 453.666 326.392 453.663H284.199C284.055 453.663 283.916 453.72 283.814 453.823C283.712 453.925 283.654 454.063 283.654 454.208V499.351C283.654 499.495 283.712 499.634 283.814 499.736C283.916 499.838 284.055 499.895 284.199 499.895ZM325.891 498.807H284.743V454.752H325.847L325.891 498.807Z" fill="#263238"/>
<path d="M343.486 499.896H385.722C385.867 499.896 386.005 499.838 386.107 499.736C386.209 499.634 386.267 499.496 386.267 499.351V483.302C386.267 483.157 386.209 483.019 386.107 482.917C386.005 482.815 385.867 482.757 385.722 482.757H343.486C343.342 482.757 343.203 482.815 343.101 482.917C342.999 483.019 342.942 483.157 342.942 483.302V499.351C342.942 499.496 342.999 499.634 343.101 499.736C343.203 499.838 343.342 499.896 343.486 499.896ZM385.178 498.807H344.03V483.846H385.178V498.807Z" fill="#263238"/>
<path d="M402.817 499.896H445.054C445.198 499.896 445.337 499.838 445.439 499.736C445.541 499.634 445.598 499.496 445.598 499.351V491.893C445.595 491.749 445.537 491.612 445.436 491.511C445.334 491.409 445.197 491.351 445.054 491.348H402.817C402.673 491.348 402.535 491.406 402.433 491.508C402.33 491.61 402.273 491.748 402.273 491.893V499.351C402.273 499.496 402.33 499.634 402.433 499.736C402.535 499.838 402.673 499.896 402.817 499.896ZM444.509 498.807H403.362V492.437H444.509V498.807Z" fill="#263238"/>
<path d="M163.108 68.7463H285.287C285.394 68.7448 285.498 68.7121 285.586 68.6522C285.674 68.5922 285.743 68.5078 285.783 68.4092C285.824 68.3107 285.835 68.2024 285.814 68.0978C285.794 67.9932 285.743 67.8969 285.669 67.8208C284.972 67.1239 283.099 65.066 282.827 63.9663C282.402 62.2786 277.208 61.7886 274.911 61.6797C273.743 61.2953 272.673 60.6592 271.778 59.8163C270.882 58.9735 270.182 57.9444 269.728 56.8017C268.476 53.3718 262.825 52.8056 258.698 52.4463C257.625 52.3624 256.556 52.2244 255.497 52.0326C254.351 51.7536 253.28 51.2257 252.361 50.4864C252.305 50.4374 252.24 50.4004 252.169 50.3777C252.098 50.3549 252.023 50.3469 251.949 50.3541C251.875 50.3613 251.804 50.3836 251.739 50.4196C251.674 50.4555 251.617 50.5044 251.571 50.5633C251.526 50.6221 251.493 50.6896 251.475 50.7616C251.456 50.8336 251.453 50.9086 251.465 50.982C251.476 51.0554 251.503 51.1256 251.543 51.1883C251.583 51.251 251.635 51.3049 251.697 51.3466C252.744 52.1838 253.964 52.7788 255.268 53.0887C256.366 53.2965 257.475 53.4455 258.589 53.5352C262.433 53.9163 267.681 54.4389 268.704 57.2372C269.215 58.5543 270.018 59.7389 271.051 60.7023C272.084 61.6658 273.322 62.3833 274.671 62.8012H274.791C278.254 62.9863 281.574 63.6832 281.77 64.2603C282.285 65.5428 283.051 66.7091 284.024 67.6901H163.424C162.771 66.4924 160.462 61.3095 166.092 56.3117C168.781 53.9163 172.679 54.4825 176.109 54.9833C179.887 55.5386 183.448 56.0722 184.243 52.2612C184.272 52.1168 184.242 51.9669 184.16 51.8444C184.079 51.7218 183.952 51.6368 183.807 51.6079C183.663 51.579 183.513 51.6087 183.39 51.6904C183.268 51.7721 183.183 51.8991 183.154 52.0434C182.599 54.7002 180.29 54.5042 176.251 53.9054C172.57 53.3718 168.411 52.8165 165.362 55.4951C158.372 61.7124 162.607 68.4632 162.651 68.5612C162.707 68.6266 162.777 68.6776 162.857 68.7098C162.937 68.742 163.023 68.7546 163.108 68.7463V68.7463Z" fill="#263238"/>
<path d="M248.866 47.8621C248.975 47.8601 249.081 47.826 249.171 47.7642C249.23 47.7248 249.281 47.6739 249.32 47.6145C249.36 47.5551 249.387 47.4884 249.4 47.4184C249.413 47.3483 249.412 47.2764 249.397 47.2067C249.382 47.1371 249.353 47.0712 249.312 47.0128C248.237 45.3787 247.325 43.6427 246.59 41.8299C246.16 40.6759 245.478 39.6318 244.595 38.7732C243.712 37.9146 242.649 37.2627 241.483 36.8648C237.749 35.5691 232.653 36.5817 227.132 39.6958C223.735 41.6231 221.383 42.2437 219.728 41.6666C217.768 40.9806 216.799 38.5525 215.569 35.482C214.021 32.0013 211.172 29.2653 207.631 27.8601C205.569 27.0155 203.355 26.6021 201.127 26.6451C198.898 26.6882 196.702 27.1869 194.674 28.1105C188.685 30.6475 185.724 37.333 184.297 42.4941C184.26 42.6385 184.281 42.7919 184.357 42.9206C184.432 43.0492 184.556 43.1426 184.7 43.1801C184.845 43.2177 184.998 43.1963 185.127 43.1207C185.255 43.0452 185.349 42.9216 185.386 42.7772C186.758 37.8557 189.556 31.475 195.186 29.1231C197.08 28.2564 199.131 27.787 201.214 27.7439C203.296 27.7009 205.365 28.085 207.294 28.8727C210.504 30.2066 213.086 32.7142 214.513 35.8849C215.787 39.0861 216.886 41.8408 219.315 42.6901C221.274 43.387 223.92 42.6901 227.612 40.6431C232.86 37.6815 237.64 36.7015 241.07 37.8883C242.088 38.2412 243.017 38.8145 243.788 39.5674C244.56 40.3202 245.156 41.234 245.534 42.2437C246.291 44.1269 247.236 45.9289 248.354 47.6226C248.411 47.7038 248.488 47.7687 248.578 47.8108C248.668 47.8528 248.767 47.8705 248.866 47.8621V47.8621Z" fill="#263238"/>
<path d="M390.372 116.568H432.837C432.981 116.568 433.12 116.511 433.222 116.409C433.324 116.307 433.381 116.168 433.381 116.024C433.381 115.879 433.324 115.741 433.222 115.639C433.12 115.537 432.981 115.479 432.837 115.479H390.688C390.263 114.63 389.185 111.756 392.31 108.946C393.867 107.563 396.165 107.857 398.201 108.195C399.997 108.456 401.696 108.707 402.687 107.705C403.395 106.997 403.612 105.821 403.351 104.003C403.449 103.197 404.527 94.7586 409.797 92.5374C411.215 91.8844 412.78 91.6142 414.335 91.7536C415.89 91.8931 417.381 92.4373 418.66 93.3323C418.778 93.4132 418.922 93.4449 419.063 93.4204C419.203 93.396 419.328 93.3174 419.411 93.2016C419.494 93.0838 419.528 92.9385 419.506 92.7963C419.483 92.6541 419.407 92.5262 419.292 92.4394C417.861 91.4368 416.192 90.8258 414.452 90.6673C412.712 90.5088 410.961 90.8081 409.372 91.5357C403.264 94.1162 402.295 103.513 402.262 103.959V104.09C402.48 105.538 402.36 106.496 401.925 106.943C401.315 107.553 399.878 107.335 398.353 107.117C396.176 106.801 393.519 106.409 391.592 108.13C387.236 112.017 389.882 116.252 389.915 116.296C389.961 116.377 390.028 116.444 390.108 116.492C390.188 116.539 390.279 116.566 390.372 116.568Z" fill="#263238"/>
<path d="M439.479 116.568H464.294C464.4 116.57 464.505 116.54 464.594 116.481C464.683 116.423 464.753 116.339 464.794 116.241C464.838 116.142 464.851 116.032 464.832 115.925C464.812 115.818 464.761 115.72 464.686 115.642C463.994 115.011 463.429 114.253 463.02 113.41C462.747 112.321 460.189 111.984 458.065 111.875C457.395 111.65 456.781 111.282 456.266 110.797C455.751 110.312 455.347 109.722 455.082 109.066C454.287 106.888 450.792 106.507 448.244 106.246C447.46 106.169 446.796 106.104 446.328 106.006C444.346 105.56 442.473 103.426 441.058 99.9957C440.776 99.2671 440.337 98.6094 439.773 98.0693C439.208 97.5293 438.532 97.12 437.791 96.8707C435.472 96.065 432.347 96.6856 428.928 98.602C426.957 99.6908 425.553 100.094 424.573 99.7779C423.593 99.4622 422.918 97.9595 422.188 96.163C422.163 96.0955 422.124 96.0338 422.075 95.9817C422.025 95.9295 421.965 95.8879 421.899 95.8595C421.833 95.831 421.762 95.8162 421.69 95.8159C421.618 95.8157 421.547 95.83 421.48 95.8581C421.348 95.9137 421.242 96.0185 421.185 96.1505C421.128 96.2824 421.125 96.4313 421.175 96.5658C421.97 98.5475 422.656 100.257 424.213 100.801C425.465 101.237 427.12 100.801 429.418 99.5493C432.532 97.7853 435.363 97.1974 437.377 97.8942C437.964 98.1 438.498 98.4318 438.942 98.8664C439.386 99.301 439.729 99.8277 439.947 100.409C441.94 105.244 444.302 106.692 445.979 107.062C446.657 107.188 447.34 107.279 448.026 107.334C450.291 107.563 453.383 107.868 453.95 109.436C454.273 110.266 454.78 111.012 455.433 111.62C456.085 112.227 456.866 112.679 457.717 112.942H457.826C459.216 112.921 460.595 113.188 461.876 113.726C462.12 114.373 462.49 114.966 462.965 115.468H439.479C439.334 115.468 439.196 115.526 439.094 115.628C438.992 115.73 438.934 115.868 438.934 116.013C438.933 116.085 438.946 116.157 438.973 116.224C438.999 116.292 439.039 116.353 439.09 116.405C439.141 116.456 439.201 116.497 439.268 116.525C439.335 116.553 439.406 116.568 439.479 116.568V116.568Z" fill="#263238"/>
<path d="M396.535 412.973H416.58C416.725 412.973 416.863 412.916 416.965 412.814C417.068 412.712 417.125 412.573 417.125 412.429C417.125 412.284 417.068 412.146 416.965 412.044C416.863 411.942 416.725 411.884 416.58 411.884H396.851C396.415 411.024 395.348 408.15 398.473 405.351C400.03 403.968 402.328 404.262 404.364 404.6C406.16 404.861 407.859 405.112 408.85 404.11C409.557 403.402 409.775 402.226 409.514 400.408C409.601 399.602 410.69 391.164 415.96 388.942C417.08 388.429 418.294 388.151 419.526 388.125C420.759 388.098 421.983 388.325 423.124 388.79C425.059 389.557 426.62 391.044 427.48 392.938C428.275 394.92 428.961 396.63 430.518 397.174C431.77 397.62 433.425 397.174 435.711 395.922C438.836 394.158 441.657 393.57 443.682 394.278C444.268 394.48 444.803 394.809 445.247 395.242C445.692 395.675 446.035 396.201 446.251 396.782C448.244 401.616 450.607 403.076 452.284 403.435C452.957 403.565 453.636 403.656 454.32 403.707C456.585 403.936 459.688 404.241 460.254 405.809C460.569 406.643 461.069 407.396 461.715 408.011C462.362 408.625 463.139 409.086 463.989 409.358H464.098C465.487 409.337 466.867 409.604 468.148 410.142C468.394 410.792 468.764 411.387 469.237 411.895H423.244C423.1 411.895 422.961 411.953 422.859 412.055C422.757 412.157 422.7 412.295 422.7 412.44C422.7 412.584 422.757 412.722 422.859 412.825C422.961 412.927 423.1 412.984 423.244 412.984H470.456C470.564 412.982 470.668 412.948 470.757 412.888C470.846 412.827 470.915 412.742 470.957 412.643C470.998 412.544 471.01 412.435 470.991 412.329C470.972 412.224 470.922 412.126 470.848 412.048C470.162 411.432 469.597 410.693 469.183 409.87C468.91 408.781 466.352 408.454 464.228 408.335C463.558 408.11 462.944 407.742 462.429 407.257C461.914 406.772 461.51 406.181 461.245 405.525C460.45 403.348 456.955 402.967 454.396 402.705C453.623 402.629 452.959 402.564 452.491 402.466C450.509 402.019 448.636 399.885 447.221 396.455C446.939 395.727 446.5 395.069 445.935 394.529C445.371 393.989 444.694 393.58 443.954 393.33C441.635 392.525 438.51 393.145 435.091 395.062C433.12 396.15 431.715 396.553 430.79 396.238C429.701 395.846 429.124 394.419 428.405 392.623C427.487 390.446 425.751 388.718 423.571 387.81C422.297 387.287 420.93 387.031 419.554 387.057C418.177 387.083 416.821 387.391 415.568 387.962C409.459 390.543 408.49 399.94 408.458 400.386C408.452 400.429 408.452 400.473 408.458 400.517C408.675 401.965 408.556 402.923 408.12 403.37C407.51 403.979 406.073 403.772 404.549 403.544C402.371 403.228 399.714 402.836 397.787 404.556C393.432 408.444 396.078 412.679 396.11 412.723C396.156 412.795 396.219 412.855 396.293 412.899C396.366 412.942 396.449 412.968 396.535 412.973V412.973Z" fill="#263238"/>
<path d="M246.569 266.154H280.464C280.609 266.154 280.747 266.097 280.849 265.995C280.951 265.892 281.009 265.754 281.009 265.61C281.009 265.465 280.951 265.327 280.849 265.225C280.747 265.122 280.609 265.065 280.464 265.065H246.884C246.22 263.857 243.836 258.532 249.606 253.404C252.361 250.954 256.346 251.542 259.863 252.053C262.934 252.5 265.591 252.881 267.137 251.335C268.226 250.246 268.574 248.319 268.139 245.346C268.258 244.257 270.055 229.493 279.267 225.595C281.207 224.709 283.309 224.23 285.442 224.187C287.574 224.144 289.694 224.538 291.668 225.344C295.011 226.694 297.705 229.279 299.192 232.563C300.499 235.83 301.621 238.639 304.103 239.51C306.107 240.218 308.807 239.51 312.574 237.419C317.942 234.392 322.831 233.391 326.348 234.61C327.392 234.969 328.343 235.555 329.134 236.325C329.924 237.094 330.535 238.03 330.921 239.064C333.491 245.324 337.03 249.244 340.862 250.094C341.723 250.279 342.899 250.398 344.26 250.54C348.19 250.932 353.569 251.476 354.604 254.329C355.129 255.676 355.952 256.887 357.009 257.873C358.066 258.858 359.332 259.594 360.712 260.024H360.821C364.392 260.22 367.8 260.928 367.964 261.526C368.498 262.846 369.29 264.045 370.294 265.054H291.723C291.579 265.057 291.443 265.115 291.341 265.217C291.24 265.318 291.181 265.455 291.179 265.599C291.179 265.743 291.236 265.882 291.338 265.984C291.44 266.086 291.579 266.143 291.723 266.143H371.557C371.664 266.142 371.767 266.109 371.855 266.049C371.944 265.989 372.012 265.905 372.053 265.806C372.093 265.707 372.104 265.599 372.084 265.495C372.063 265.39 372.013 265.294 371.938 265.218C371.219 264.499 369.303 262.397 369.02 261.265C368.595 259.545 363.282 259.087 360.941 258.946C359.746 258.546 358.653 257.893 357.736 257.03C356.818 256.167 356.099 255.116 355.627 253.948C354.353 250.442 348.582 249.865 344.369 249.44C343.273 249.359 342.182 249.217 341.102 249.016C337.629 248.242 334.373 244.562 331.934 238.639C331.491 237.461 330.795 236.396 329.893 235.519C328.992 234.642 327.908 233.975 326.718 233.565C322.897 232.247 317.692 233.271 312.052 236.461C308.567 238.432 306.161 239.064 304.43 238.476C302.415 237.768 301.425 235.285 300.172 232.149C298.596 228.578 295.678 225.771 292.05 224.331C289.942 223.47 287.68 223.048 285.404 223.091C283.127 223.134 280.883 223.642 278.809 224.582C268.694 228.872 267.082 244.628 267.017 245.27V245.401C267.409 248.003 267.18 249.68 266.331 250.529C265.166 251.694 262.771 251.346 259.994 250.943C256.238 250.398 251.991 249.778 248.855 252.554C241.701 258.913 246.035 265.806 246.079 265.871C246.125 265.959 246.196 266.033 246.283 266.083C246.37 266.133 246.469 266.157 246.569 266.154V266.154Z" fill="#263238"/>
<path d="M101.469 63.6725H131.51C131.655 63.6725 131.793 63.6152 131.895 63.5131C131.997 63.411 132.055 63.2725 132.055 63.1281V33.0869C132.055 32.9425 131.997 32.804 131.895 32.7019C131.793 32.5998 131.655 32.5425 131.51 32.5425H101.469C101.325 32.5425 101.186 32.5998 101.084 32.7019C100.982 32.804 100.925 32.9425 100.925 33.0869V63.1063C100.922 63.1796 100.934 63.2528 100.96 63.3214C100.986 63.3899 101.025 63.4526 101.076 63.5054C101.127 63.5583 101.188 63.6004 101.256 63.6291C101.323 63.6578 101.396 63.6726 101.469 63.6725ZM130.966 62.5837H102.013V33.6313H130.966V62.5837Z" fill="#263238"/>
<path d="M72.3426 76.4115H86.9004C87.0448 76.4115 87.1833 76.3541 87.2854 76.252C87.3875 76.1499 87.4448 76.0115 87.4448 75.8671V61.2983C87.4448 61.1539 87.3875 61.0155 87.2854 60.9134C87.1833 60.8113 87.0448 60.7539 86.9004 60.7539H72.3426C72.1982 60.7539 72.0597 60.8113 71.9576 60.9134C71.8555 61.0155 71.7981 61.1539 71.7981 61.2983V75.8671C71.7981 76.0115 71.8555 76.1499 71.9576 76.252C72.0597 76.3541 72.1982 76.4115 72.3426 76.4115ZM86.356 75.3226H72.887V61.8428H86.356V75.3226Z" fill="#263238"/>
<path d="M101.469 101.902H110.572C110.716 101.902 110.855 101.844 110.957 101.742C111.059 101.64 111.116 101.502 111.116 101.357V92.2544C111.116 92.11 111.059 91.9715 110.957 91.8694C110.855 91.7673 110.716 91.71 110.572 91.71H101.469C101.325 91.71 101.186 91.7673 101.084 91.8694C100.982 91.9715 100.925 92.11 100.925 92.2544V101.357C100.925 101.502 100.982 101.64 101.084 101.742C101.186 101.844 101.325 101.902 101.469 101.902ZM110.027 100.813H102.013V92.7988H109.984L110.027 100.813Z" fill="#263238"/>
<path d="M82.349 106.453H88.7188C88.8632 106.453 89.0016 106.395 89.1037 106.293C89.2058 106.191 89.2632 106.053 89.2632 105.908V99.5386C89.2632 99.3942 89.2058 99.2557 89.1037 99.1536C89.0016 99.0515 88.8632 98.9941 88.7188 98.9941H82.349C82.2046 98.9941 82.0662 99.0515 81.9641 99.1536C81.862 99.2557 81.8046 99.3942 81.8046 99.5386V105.908C81.8046 106.053 81.862 106.191 81.9641 106.293C82.0662 106.395 82.2046 106.453 82.349 106.453ZM88.1743 105.364H82.8934V100.127H88.207L88.1743 105.364Z" fill="#263238"/>
<path d="M83.4056 349.678H90.69C90.8343 349.678 90.9728 349.621 91.0749 349.519C91.177 349.417 91.2344 349.278 91.2344 349.134V341.85C91.2344 341.705 91.177 341.567 91.0749 341.465C90.9728 341.363 90.8343 341.305 90.69 341.305H83.4056C83.2612 341.305 83.1227 341.363 83.0206 341.465C82.9185 341.567 82.8612 341.705 82.8612 341.85V349.134C82.8639 349.277 82.9222 349.414 83.0237 349.516C83.1252 349.617 83.2621 349.676 83.4056 349.678V349.678ZM90.1455 348.59H83.95V342.394H90.1455V348.59Z" fill="#263238"/>
<path d="M0.424562 193.844H10.4419C10.5863 193.844 10.7248 193.786 10.8269 193.684C10.929 193.582 10.9863 193.443 10.9863 193.299V183.282C10.9835 183.138 10.9253 183.001 10.8238 182.9C10.7223 182.798 10.5854 182.74 10.4419 182.737H0.424562C0.280172 182.737 0.141704 182.795 0.0396053 182.897C-0.0624937 182.999 -0.11986 183.137 -0.11986 183.282V193.299C-0.11986 193.443 -0.0624937 193.582 0.0396053 193.684C0.141704 193.786 0.280172 193.844 0.424562 193.844ZM9.89748 192.755H0.968984V183.826H9.89748V192.755Z" fill="#263238"/>
<path d="M83.264 219.333H92.3667C92.5111 219.333 92.6496 219.276 92.7517 219.174C92.8538 219.072 92.9111 218.933 92.9111 218.789V209.686C92.9111 209.542 92.8538 209.403 92.7517 209.301C92.6496 209.199 92.5111 209.142 92.3667 209.142H83.264C83.1196 209.142 82.9811 209.199 82.879 209.301C82.7769 209.403 82.7195 209.542 82.7195 209.686V218.811C82.7252 218.951 82.785 219.084 82.8865 219.182C82.988 219.279 83.1233 219.333 83.264 219.333ZM91.8223 218.244H83.8519V210.23H91.8658L91.8223 218.244Z" fill="#263238"/>
<path d="M103.135 260.47H123.17C123.314 260.47 123.453 260.412 123.555 260.31C123.657 260.208 123.714 260.07 123.714 259.925V239.901C123.714 239.757 123.657 239.618 123.555 239.516C123.453 239.414 123.314 239.357 123.17 239.357H103.135C102.991 239.357 102.852 239.414 102.75 239.516C102.648 239.618 102.591 239.757 102.591 239.901V259.925C102.591 260.07 102.648 260.208 102.75 260.31C102.852 260.412 102.991 260.47 103.135 260.47ZM122.626 259.381H103.68V240.446H122.626V259.381Z" fill="#263238"/>
<path d="M54.1262 326.748H62.3252C62.4696 326.748 62.6081 326.69 62.7102 326.588C62.8123 326.486 62.8696 326.348 62.8696 326.203V318.015C62.8696 317.871 62.8123 317.732 62.7102 317.63C62.6081 317.528 62.4696 317.471 62.3252 317.471H54.1262C53.9818 317.471 53.8433 317.528 53.7412 317.63C53.6391 317.732 53.5818 317.871 53.5818 318.015V326.203C53.5818 326.348 53.6391 326.486 53.7412 326.588C53.8433 326.69 53.9818 326.748 54.1262 326.748ZM61.7481 325.659H54.638V318.56H61.7481V325.659Z" fill="#263238"/>
<path d="M111.487 422.337H136.062C136.206 422.337 136.345 422.28 136.447 422.178C136.549 422.076 136.606 421.937 136.606 421.793V397.207C136.606 397.062 136.549 396.924 136.447 396.822C136.345 396.719 136.206 396.662 136.062 396.662H111.487C111.342 396.662 111.204 396.719 111.102 396.822C111 396.924 110.942 397.062 110.942 397.207V421.793C110.942 421.937 111 422.076 111.102 422.178C111.204 422.28 111.342 422.337 111.487 422.337V422.337ZM135.518 421.248H112.031V397.751H135.518V421.248Z" fill="#263238"/>
<path d="M68.6949 454.197H81.4453C81.5897 454.197 81.7282 454.139 81.8303 454.037C81.9324 453.935 81.9897 453.797 81.9897 453.652V440.935C81.987 440.791 81.9287 440.654 81.8272 440.553C81.7257 440.451 81.5888 440.393 81.4453 440.39H68.6949C68.5514 440.393 68.4146 440.451 68.3131 440.553C68.2116 440.654 68.1533 440.791 68.1505 440.935V453.685C68.1588 453.824 68.2199 453.954 68.3211 454.049C68.4223 454.144 68.556 454.197 68.6949 454.197ZM80.9009 453.108H69.2394V441.446H80.9009V453.108Z" fill="#263238"/>
<path d="M103.288 379.546H121.493C121.638 379.546 121.776 379.488 121.878 379.386C121.98 379.284 122.038 379.146 122.038 379.001V360.796C122.038 360.651 121.98 360.513 121.878 360.411C121.776 360.309 121.638 360.251 121.493 360.251H103.288C103.144 360.254 103.007 360.313 102.906 360.414C102.804 360.516 102.746 360.652 102.743 360.796V379.001C102.743 379.146 102.801 379.284 102.903 379.386C103.005 379.488 103.143 379.546 103.288 379.546ZM120.949 378.457H103.832V361.34H120.949V378.457Z" fill="#263238"/>
<path d="M79.616 403.217H88.7188C88.8632 403.217 89.0016 403.16 89.1037 403.058C89.2058 402.955 89.2632 402.817 89.2632 402.673V393.57C89.2632 393.425 89.2058 393.287 89.1037 393.185C89.0016 393.083 88.8632 393.025 88.7188 393.025H79.616C79.4716 393.025 79.3332 393.083 79.2311 393.185C79.129 393.287 79.0716 393.425 79.0716 393.57V402.673C79.0716 402.817 79.129 402.955 79.2311 403.058C79.3332 403.16 79.4716 403.217 79.616 403.217ZM88.1743 402.128H80.1604V394.114H88.207L88.1743 402.128Z" fill="#263238"/>
<path d="M103.287 452.379H112.39C112.535 452.379 112.673 452.321 112.775 452.219C112.877 452.117 112.935 451.979 112.935 451.834V442.731C112.935 442.587 112.877 442.449 112.775 442.346C112.673 442.244 112.535 442.187 112.39 442.187H103.287C103.143 442.187 103.005 442.244 102.902 442.346C102.8 442.449 102.743 442.587 102.743 442.731V451.823C102.743 451.969 102.8 452.108 102.902 452.212C103.004 452.316 103.142 452.376 103.287 452.379V452.379ZM111.846 451.29H103.832V443.276H111.846V451.29Z" fill="#263238"/>
<path d="M52.2752 441.446H64.1436C64.288 441.446 64.4264 441.389 64.5285 441.287C64.6306 441.185 64.688 441.046 64.688 440.902V429.077C64.688 428.933 64.6306 428.794 64.5285 428.692C64.4264 428.59 64.288 428.533 64.1436 428.533H52.2752C52.1308 428.533 51.9923 428.59 51.8902 428.692C51.7881 428.794 51.7308 428.933 51.7308 429.077V440.935C51.7391 441.073 51.8001 441.204 51.9013 441.299C52.0025 441.394 52.1363 441.447 52.2752 441.446ZM63.5665 440.358H52.8196V429.622H63.5991L63.5665 440.358Z" fill="#263238"/>
<path d="M5.87952 447.827H11.3237C11.4681 447.827 11.6066 447.77 11.7087 447.668C11.8108 447.565 11.8682 447.427 11.8682 447.283V441.838C11.8682 441.694 11.8108 441.556 11.7087 441.453C11.6066 441.351 11.4681 441.294 11.3237 441.294H5.87952C5.73513 441.294 5.59663 441.351 5.49453 441.453C5.39243 441.556 5.3351 441.694 5.3351 441.838V447.283C5.33789 447.426 5.39612 447.563 5.49762 447.664C5.59912 447.766 5.73601 447.824 5.87952 447.827ZM10.8011 446.738H6.44571V442.383H10.8011V446.738Z" fill="#263238"/>
<path d="M37.7501 480.59H46.8311C46.9755 480.59 47.1139 480.533 47.216 480.431C47.3181 480.328 47.3755 480.19 47.3755 480.046V470.943C47.3727 470.799 47.3144 470.662 47.2129 470.561C47.1114 470.459 46.9746 470.401 46.8311 470.398H37.7283C37.584 470.398 37.4455 470.456 37.3434 470.558C37.2413 470.66 37.1839 470.798 37.1839 470.943V480.046C37.1839 480.119 37.1986 480.192 37.2273 480.259C37.256 480.327 37.2981 480.388 37.351 480.438C37.4039 480.489 37.4665 480.529 37.5351 480.555C37.6037 480.581 37.6768 480.593 37.7501 480.59ZM46.3084 479.501H38.2945V471.487H46.3084V479.501Z" fill="#263238"/>
<path d="M0.424627 348.601H7.709C7.85251 348.598 7.98936 348.54 8.09086 348.438C8.19236 348.337 8.25063 348.2 8.25342 348.056V340.761C8.25342 340.617 8.19605 340.478 8.09395 340.376C7.99185 340.274 7.85339 340.217 7.709 340.217H0.424627C0.280238 340.217 0.14177 340.274 0.0396708 340.376C-0.0624281 340.478 -0.119795 340.617 -0.119795 340.761V348.046C-0.121243 348.118 -0.108225 348.19 -0.0815149 348.257C-0.0548044 348.325 -0.0149494 348.386 0.0357498 348.438C0.086449 348.489 0.146951 348.53 0.213724 348.558C0.280496 348.586 0.352207 348.601 0.424627 348.601ZM7.16457 347.512H0.969049V341.317H7.16457V347.512Z" fill="#263238"/>
<path d="M43.2049 31.8014H52.2749C52.4193 31.8014 52.5578 31.7441 52.6599 31.642C52.762 31.5399 52.8193 31.4014 52.8193 31.257V22.1543C52.8193 22.0099 52.762 21.8714 52.6599 21.7693C52.5578 21.6672 52.4193 21.6099 52.2749 21.6099H43.1722C43.0287 21.6127 42.8918 21.6709 42.7903 21.7724C42.6888 21.8739 42.6306 22.0108 42.6278 22.1543V31.257C42.6276 31.3313 42.6427 31.4049 42.6721 31.4732C42.7015 31.5415 42.7445 31.603 42.7986 31.654C42.8526 31.705 42.9166 31.7444 42.9864 31.7698C43.0563 31.7951 43.1307 31.8059 43.2049 31.8014ZM51.7632 30.7126H43.7493V22.6987H51.7632V30.7126Z" fill="#263238"/>
<path d="M90.548 22.6988H106.935C107.079 22.6988 107.218 22.6415 107.32 22.5394C107.422 22.4373 107.479 22.2988 107.479 22.1544V5.82177C107.477 5.67825 107.418 5.54139 107.317 5.43989C107.215 5.33839 107.079 5.28013 106.935 5.27734H90.548C90.4036 5.27734 90.2651 5.3347 90.163 5.4368C90.0609 5.5389 90.0035 5.67738 90.0035 5.82177V22.1544C90.0035 22.2988 90.0609 22.4373 90.163 22.5394C90.2651 22.6415 90.4036 22.6988 90.548 22.6988ZM106.391 21.61H91.0924V6.36619H106.391V21.61Z" fill="#263238"/>
<path d="M139.263 500.571C139.407 500.571 139.546 500.513 139.648 500.411C139.75 500.309 139.807 500.171 139.807 500.026V486.666H150.696C150.84 486.666 150.979 486.609 151.081 486.507C151.183 486.405 151.24 486.266 151.24 486.122V469.789C151.237 469.646 151.179 469.509 151.078 469.407C150.976 469.306 150.839 469.247 150.696 469.245H129.18V445.432H140.33C140.474 445.432 140.613 445.374 140.715 445.272C140.817 445.17 140.874 445.032 140.874 444.887V415.423H148.387C148.532 415.423 148.67 415.366 148.772 415.264C148.875 415.162 148.932 415.023 148.932 414.879V389.759C148.932 389.615 148.875 389.476 148.772 389.374C148.67 389.272 148.532 389.215 148.387 389.215H138.882V377.237H149.4C149.544 377.237 149.683 377.18 149.785 377.078C149.887 376.976 149.945 376.837 149.945 376.693V353.533C149.942 353.39 149.883 353.253 149.782 353.151C149.68 353.05 149.544 352.992 149.4 352.989H136.867V289.716H148.387C148.532 289.716 148.67 289.659 148.772 289.557C148.875 289.455 148.932 289.316 148.932 289.172V272.077C148.932 271.932 148.875 271.794 148.772 271.692C148.67 271.59 148.532 271.532 148.387 271.532H136.116V230.853C136.116 230.709 136.059 230.57 135.957 230.468C135.855 230.366 135.716 230.309 135.572 230.309H120.731V221.337H148.899C149.044 221.337 149.182 221.279 149.284 221.177C149.386 221.075 149.444 220.937 149.444 220.792V130.288C149.444 130.143 149.386 130.005 149.284 129.903C149.182 129.8 149.044 129.743 148.899 129.743H137.88V120.227C137.877 120.083 137.819 119.946 137.718 119.845C137.616 119.743 137.479 119.685 137.336 119.682H126.817V96.6423H150.347C150.492 96.6423 150.63 96.5849 150.732 96.4828C150.834 96.3807 150.892 96.2423 150.892 96.0979V64.9243C150.892 64.7799 150.834 64.6414 150.732 64.5393C150.63 64.4372 150.492 64.3798 150.347 64.3798H137.88V46.3595H147.386C147.53 46.3595 147.669 46.3021 147.771 46.2C147.873 46.0979 147.93 45.9594 147.93 45.815V-1.45167C147.93 -1.59606 147.873 -1.73454 147.771 -1.83663C147.669 -1.93873 147.53 -1.99609 147.386 -1.99609C147.242 -1.99331 147.105 -1.93505 147.004 -1.83355C146.902 -1.73205 146.844 -1.59519 146.841 -1.45167V45.2706H137.336C137.191 45.2706 137.053 45.328 136.951 45.4301C136.849 45.5322 136.791 45.6707 136.791 45.815V64.9243C136.791 65.0686 136.849 65.2071 136.951 65.3092C137.053 65.4113 137.191 65.4687 137.336 65.4687H149.803V95.5534H126.317C126.172 95.5534 126.034 95.6108 125.932 95.7129C125.83 95.815 125.772 95.9535 125.772 96.0979V120.227C125.772 120.371 125.83 120.51 125.932 120.612C126.034 120.714 126.172 120.771 126.317 120.771H136.835V130.288C136.835 130.432 136.892 130.57 136.994 130.673C137.096 130.775 137.235 130.832 137.379 130.832H148.355V220.248H120.23C120.086 220.248 119.947 220.305 119.845 220.407C119.743 220.509 119.686 220.648 119.686 220.792V230.853C119.688 230.997 119.747 231.134 119.848 231.235C119.95 231.337 120.086 231.395 120.23 231.398H135.027V272.077C135.027 272.221 135.085 272.36 135.187 272.462C135.289 272.564 135.427 272.621 135.572 272.621H147.843V288.627H136.323C136.18 288.63 136.043 288.688 135.941 288.79C135.84 288.891 135.781 289.028 135.779 289.172V353.533C135.779 353.678 135.836 353.816 135.938 353.918C136.04 354.02 136.179 354.078 136.323 354.078H148.856V376.116H138.294C138.149 376.116 138.011 376.173 137.909 376.275C137.807 376.377 137.749 376.516 137.749 376.66V389.726C137.749 389.871 137.807 390.009 137.909 390.111C138.011 390.213 138.149 390.271 138.294 390.271H147.799V414.323H140.286C140.142 414.323 140.004 414.381 139.901 414.483C139.799 414.585 139.742 414.723 139.742 414.868V444.332H128.549C128.405 444.335 128.268 444.393 128.167 444.494C128.065 444.596 128.007 444.733 128.004 444.876V469.789C128.004 469.933 128.062 470.072 128.164 470.174C128.266 470.276 128.404 470.334 128.549 470.334H150.108V485.577H139.219C139.076 485.58 138.939 485.638 138.837 485.74C138.736 485.841 138.678 485.978 138.675 486.122V499.994C138.67 500.072 138.682 500.15 138.71 500.223C138.738 500.296 138.781 500.362 138.837 500.417C138.893 500.471 138.96 500.514 139.033 500.54C139.107 500.567 139.185 500.577 139.263 500.571Z" fill="#263238"/>
<path d="M298.68 318.843C298.68 318.843 304.593 315.402 305.812 314.172C307.032 312.942 317.125 301.378 319.586 302.119C322.047 302.859 325.248 308.271 327.948 312.942C330.649 317.613 339.022 327.445 341.232 334.087C343.443 340.729 340.252 339.749 339.055 338.758C333.46 335.043 327.642 331.675 321.633 328.675C319.076 327.454 316.447 326.389 313.761 325.485L304.168 329.666L298.68 318.843Z" fill="white"/>
<path d="M340.764 340.01C341.108 340.017 341.447 339.918 341.733 339.727C342.822 338.986 342.822 337.081 341.733 333.912C340.241 329.426 335.984 323.514 332.576 318.756C330.823 316.317 329.309 314.215 328.417 312.669C325.15 307.062 322.276 302.358 319.706 301.596C317.985 301.073 314.153 304.274 306.466 312.626C305.954 313.192 305.573 313.605 305.377 313.78C303.141 315.466 300.794 317.001 298.354 318.375C298.235 318.443 298.147 318.555 298.108 318.687C298.07 318.819 298.084 318.96 298.147 319.082L303.591 329.905C303.652 330.029 303.759 330.125 303.889 330.171C304.019 330.218 304.162 330.212 304.288 330.156L313.695 326.062C316.289 326.965 318.833 328.005 321.317 329.176C327.297 332.142 333.084 335.484 338.641 339.182C339.238 339.684 339.985 339.975 340.764 340.01V340.01ZM319.27 302.652C319.324 302.64 319.38 302.64 319.434 302.652C321.764 303.349 325.205 309.294 327.48 313.224C328.406 314.814 329.93 316.937 331.694 319.398C335.069 324.091 339.316 329.938 340.71 334.272C341.962 338.017 341.265 338.736 341.113 338.845C340.753 339.095 339.915 338.79 339.359 338.344C333.716 334.603 327.847 331.214 321.786 328.196C319.209 326.946 316.558 325.855 313.848 324.929C313.726 324.88 313.589 324.88 313.467 324.929L304.353 328.904L299.399 318.995C301.773 317.663 304.048 316.16 306.204 314.498C306.389 314.313 306.781 313.889 307.293 313.312C315.372 304.601 318.29 302.652 319.27 302.652Z" fill="#263238"/>
<path d="M308.785 310.982C312.313 307.203 317.855 301.596 319.586 302.119C322.047 302.859 325.248 308.271 327.948 312.942C330.649 317.613 339.022 327.445 341.232 334.087C343.443 340.729 340.252 339.749 339.055 338.758C333.46 335.043 327.642 331.675 321.633 328.675C319.325 327.587 317.561 326.901 316.287 326.4L320.893 321.794C320.893 321.794 313.979 314.303 308.785 310.982Z" fill="white"/>
<path d="M340.764 340.01C341.108 340.017 341.447 339.918 341.733 339.727C342.822 338.987 342.822 337.081 341.733 333.913C340.241 329.427 335.984 323.514 332.576 318.756C330.823 316.317 329.309 314.215 328.417 312.669C325.15 307.062 322.276 302.358 319.706 301.596C318.617 301.269 316.439 302.009 308.338 310.611C308.283 310.668 308.242 310.737 308.217 310.813C308.193 310.888 308.186 310.968 308.197 311.047C308.206 311.127 308.234 311.204 308.277 311.272C308.32 311.339 308.379 311.397 308.447 311.439C312.857 314.259 318.552 320.215 320.022 321.772L315.786 326.008C315.723 326.073 315.676 326.153 315.65 326.24C315.623 326.327 315.618 326.419 315.634 326.508C315.652 326.597 315.693 326.68 315.752 326.748C315.811 326.817 315.886 326.869 315.971 326.9C317.528 327.521 319.325 328.283 321.285 329.176C327.276 332.141 333.073 335.483 338.641 339.183C339.238 339.684 339.985 339.975 340.764 340.01V340.01ZM319.314 302.652H319.434C321.764 303.349 325.205 309.294 327.48 313.225C328.406 314.814 329.93 316.938 331.694 319.398C335.069 324.091 339.316 329.938 340.71 334.272C341.962 338.018 341.265 338.736 341.113 338.845C340.753 339.095 339.915 338.791 339.36 338.344C333.716 334.603 327.847 331.214 321.786 328.196C320.109 327.434 318.573 326.77 317.18 326.204L321.208 322.186C321.303 322.083 321.355 321.949 321.355 321.81C321.355 321.671 321.303 321.537 321.208 321.434C320.936 321.14 314.675 314.346 309.612 310.894C316.624 303.458 318.726 302.652 319.314 302.652Z" fill="#263238"/>
<path d="M316.581 303.512L316.962 303.229H317.038L317.604 302.847L317.746 302.76L318.16 302.521L318.279 302.455L318.748 302.259H318.835C318.939 302.219 319.049 302.193 319.161 302.183H319.259C319.367 302.161 319.478 302.161 319.586 302.183C322.047 302.924 325.248 308.335 327.948 313.006C330.649 317.677 339.022 327.51 341.232 334.152C342.18 337.015 342.136 338.453 341.668 339.095C339.49 332.41 331.934 322.577 325.488 314.727C320.806 308.956 318.051 305.439 316.581 303.512Z" fill="white"/>
<path d="M341.668 339.574C341.753 339.574 341.838 339.553 341.913 339.513C341.989 339.473 342.054 339.416 342.103 339.346C342.778 338.42 342.659 336.645 341.744 333.901C340.252 329.415 335.995 323.503 332.587 318.745C330.834 316.306 329.32 314.204 328.427 312.658C325.161 307.051 322.286 302.347 319.717 301.585C319.54 301.55 319.359 301.55 319.183 301.585H319.041L318.639 301.683C318.422 301.751 318.211 301.835 318.007 301.933L317.898 301.998L317.43 302.26L317.278 302.358L316.69 302.75L316.276 303.055C316.152 303.153 316.067 303.292 316.036 303.447C316.006 303.593 316.033 303.745 316.112 303.871C317.615 305.82 320.37 309.315 325.041 315.021C330.91 322.185 338.967 332.442 341.112 339.215C341.143 339.311 341.201 339.397 341.278 339.462C341.355 339.527 341.448 339.57 341.548 339.585L341.668 339.574ZM319.379 302.652H319.433C321.764 303.349 325.204 309.294 327.48 313.224C328.406 314.814 329.93 316.937 331.694 319.398C335.069 324.091 339.316 329.938 340.709 334.272C340.984 335.057 341.198 335.861 341.352 336.678C338.445 330.025 331.683 321.358 325.912 314.324C321.557 309.054 318.9 305.613 317.354 303.632C317.572 303.468 317.735 303.359 317.887 303.261L318.029 303.185C318.15 303.103 318.277 303.03 318.41 302.967L318.29 302.412L318.53 302.902L318.922 302.728L319.227 302.652H319.379Z" fill="#263238"/>
<path d="M33.481 338.584C33.481 338.584 20.9375 330.472 17.7472 327.76C14.5569 325.049 10.3648 322.109 9.38484 324.08C8.40488 326.051 9.13444 331.942 12.5752 339.563C16.0159 347.185 24.8791 358.009 25.6413 358.999C26.4035 359.99 27.1221 362.93 30.8133 363.181C34.5045 363.431 41.876 354.568 41.876 354.568L33.481 338.584Z" fill="white"/>
<path d="M30.9225 363.704C34.8097 363.704 41.5061 355.81 42.2683 354.895C42.3369 354.813 42.3797 354.712 42.3913 354.605C42.4029 354.499 42.3829 354.391 42.3336 354.296L33.9713 338.312C33.9269 338.226 33.8589 338.154 33.7753 338.105C33.6555 338.029 21.2318 329.982 18.0959 327.325C12.3251 322.447 10.6156 322.796 10.0603 322.916C9.80895 322.961 9.57204 323.065 9.36936 323.221C9.16668 323.376 9.00411 323.577 8.89522 323.808C7.88259 325.845 8.4379 331.703 12.0855 339.771C14.1325 344.311 18.3681 350.659 24.6726 358.651L25.1734 359.305C25.325 359.525 25.4632 359.754 25.5872 359.991C26.0081 361.032 26.715 361.934 27.6263 362.591C28.5376 363.248 29.6162 363.634 30.7374 363.704H30.9225ZM41.1903 354.481C39.0126 357.051 33.5684 362.811 30.8136 362.615C29.8769 362.555 28.977 362.227 28.2205 361.672C27.464 361.116 26.8827 360.355 26.5454 359.479C26.3998 359.191 26.2324 358.914 26.0445 358.651L25.5219 357.976C19.2828 350.06 15.0907 343.821 13.0764 339.324C9.80984 332.007 8.96053 326.117 9.86427 324.298C9.90054 324.215 9.95762 324.142 10.0301 324.087C10.1025 324.031 10.1878 323.996 10.278 323.983C10.8007 323.874 12.5537 324.059 17.3882 328.153C20.4478 330.744 31.6956 338.05 33.0675 338.943L41.1903 354.481Z" fill="#263238"/>
<path d="M30.7812 363.159C27.09 362.908 26.3496 359.957 25.6092 358.978C24.8687 357.998 16.0273 347.174 12.543 339.542C9.05874 331.909 8.36185 326.018 9.3527 324.058C9.4335 323.882 9.55988 323.731 9.71875 323.62C9.87762 323.509 10.0632 323.442 10.2565 323.427C10.8645 327.89 12.058 332.254 13.8061 336.406C16.354 342.688 26.0447 355.635 31.8047 363.061C31.472 363.154 31.1255 363.187 30.7812 363.159V363.159Z" fill="white"/>
<path d="M30.901 363.703C31.2706 363.7 31.6377 363.642 31.9898 363.529C32.0776 363.508 32.1587 363.465 32.2253 363.404C32.292 363.343 32.3421 363.266 32.3709 363.18C32.3982 363.096 32.4046 363.006 32.3894 362.919C32.3742 362.832 32.338 362.75 32.2838 362.679C26.6763 355.45 16.8875 342.394 14.3614 336.144C12.6254 332.05 11.4356 327.745 10.8227 323.34C10.8166 323.268 10.7948 323.199 10.7591 323.137C10.7234 323.075 10.6744 323.021 10.6158 322.98C10.5597 322.935 10.495 322.903 10.4257 322.884C10.3564 322.865 10.284 322.861 10.2129 322.871C9.93319 322.898 9.66497 322.996 9.43417 323.156C9.20337 323.316 9.01782 323.533 8.89543 323.786C7.88281 325.822 8.43811 331.68 12.0857 339.748C14.1436 344.3 18.3793 350.637 24.6728 358.64C24.9232 358.956 25.0974 359.173 25.1736 359.282C25.3252 359.502 25.4634 359.731 25.5874 359.968C26.0083 361.01 26.7152 361.911 27.6265 362.568C28.5378 363.225 29.6164 363.611 30.7376 363.681L30.901 363.703ZM9.81005 324.33C10.465 328.53 11.6239 332.636 13.2617 336.558C15.7552 342.71 25.0539 355.221 30.7703 362.614C29.8332 362.555 28.9327 362.229 28.176 361.673C27.4193 361.117 26.8382 360.355 26.502 359.478C26.3565 359.19 26.189 358.913 26.0012 358.651C25.9249 358.542 25.7507 358.313 25.4894 357.987C19.2394 350.071 15.0474 343.832 13.033 339.324C9.81005 332.05 8.97165 326.192 9.81005 324.33Z" fill="#263238"/>
<path d="M240.895 240.937C243.559 244.586 244.847 249.06 244.532 253.567C243.966 261.037 228.264 275.006 228.264 275.006C228.264 275.006 221.949 265.435 215.819 260.459C209.689 255.483 199.933 251.651 199.933 251.651L155.138 266.394C155.138 266.394 137.335 255.102 134.275 243.811C131.216 232.52 138.489 207.052 142.322 201.117C144.628 197.536 146.614 193.757 148.256 189.826L209.504 198.243C209.504 198.243 208.164 207.248 217.126 217.396C226.087 227.544 240.895 240.937 240.895 240.937Z" fill="#263238"/>
<path d="M228.265 275.551C228.337 275.558 228.409 275.552 228.479 275.531C228.548 275.511 228.612 275.477 228.668 275.431C229.321 274.854 244.543 261.221 245.12 253.654C245.479 248.989 244.146 244.35 241.364 240.588C241.364 240.588 241.364 240.588 241.309 240.533C241.255 240.479 226.49 227.032 217.616 217.025C208.905 207.226 210.081 198.417 210.092 198.33C210.112 198.183 210.072 198.034 209.983 197.916C209.893 197.805 209.765 197.731 209.624 197.709L148.366 189.282C148.244 189.266 148.121 189.292 148.017 189.356C147.912 189.419 147.832 189.516 147.789 189.63C146.16 193.526 144.192 197.271 141.909 200.823C138 206.877 130.737 232.661 133.797 243.952C136.857 255.244 154.158 266.393 154.899 266.818C154.966 266.861 155.042 266.888 155.121 266.9C155.199 266.911 155.28 266.905 155.356 266.883L199.999 252.206C201.349 252.75 210.027 256.354 215.558 260.851C221.547 265.718 227.83 275.18 227.884 275.278C227.929 275.344 227.986 275.399 228.054 275.441C228.122 275.482 228.197 275.508 228.276 275.518L228.265 275.551ZM240.504 241.307C243.047 244.852 244.282 249.169 243.999 253.523C243.498 259.98 230.933 271.805 228.363 274.211C226.937 272.121 221.536 264.412 216.168 260.056C210.049 255.091 200.238 251.204 200.129 251.171C200.014 251.128 199.886 251.128 199.77 251.171L155.225 265.827C153.2 264.51 137.597 253.992 134.799 243.702C131.804 232.661 138.947 207.389 142.78 201.444C145.018 197.949 146.963 194.274 148.594 190.458L208.916 198.744C208.764 200.921 208.851 208.87 216.756 217.787C225.467 227.522 239.709 240.588 240.504 241.307V241.307Z" fill="#263238"/>
<path d="M207.925 251.585C207.925 251.585 212.847 270.759 211.616 278.381C210.875 282.987 209.292 287.416 206.945 291.448L217.703 333.804L300.651 316.643L306.095 332.388C306.095 332.388 253.635 345.356 233.959 351.508C214.284 357.66 203.472 361.83 201.501 361.101C199.996 360.4 198.646 359.408 197.527 358.183L173.245 299.385L115.744 303.403C115.744 303.403 98.322 318.396 84.755 328.446C71.188 338.496 41.6041 357.562 41.6041 357.562C40.2325 356.811 39.0249 355.793 38.0526 354.568C37.0802 353.343 36.3627 351.936 35.9421 350.43C34.9086 346.529 34.0872 342.574 33.4813 338.584C34.8864 337.172 36.4545 335.933 38.1525 334.892C40.1233 333.912 42.8236 334.653 44.5549 334.163C46.2861 333.673 85.0054 296.195 89.4261 292.014C93.8468 287.833 99.5088 277.989 105.9 275.529C112.292 273.068 155.791 262.463 155.791 262.463L156.521 256.071L207.925 251.585Z" fill="#263238"/>
<path d="M202.067 361.7C204.103 361.7 208.731 360.219 218.117 357.138C222.472 355.722 227.916 353.947 234.09 352.009C253.526 345.933 305.671 333.02 306.193 332.9C306.34 332.858 306.465 332.76 306.542 332.628C306.574 332.56 306.59 332.485 306.59 332.41C306.59 332.335 306.574 332.26 306.542 332.192L301.097 316.447C301.055 316.323 300.968 316.219 300.854 316.155C300.739 316.09 300.605 316.071 300.477 316.099L218.095 333.139L207.522 291.513C209.841 287.473 211.409 283.046 212.15 278.447C213.38 270.825 208.655 252.217 208.448 251.422C208.417 251.298 208.343 251.189 208.239 251.115C208.135 251.042 208.008 251.007 207.882 251.019L156.477 255.44C156.354 255.453 156.238 255.508 156.15 255.594C156.061 255.681 156.004 255.795 155.987 255.919L155.29 261.94C150.783 263.029 111.824 272.632 105.704 275.006C101.295 276.705 97.3094 281.692 93.7925 286.101C92.3281 288.013 90.7462 289.831 89.056 291.546L82.9258 297.425C71.9067 307.998 46.112 332.769 44.3698 333.575C43.5964 333.732 42.8057 333.787 42.0179 333.738C40.6206 333.613 39.2137 333.822 37.913 334.348C36.1532 335.4 34.5358 336.673 33.1003 338.137C33.0401 338.196 32.9947 338.268 32.9682 338.347C32.9417 338.427 32.9347 338.512 32.9479 338.595C33.5507 342.626 34.3759 346.621 35.4195 350.561C35.856 352.142 36.6077 353.619 37.6293 354.903C38.6509 356.186 39.9215 357.25 41.3646 358.03C41.4454 358.078 41.5375 358.104 41.6314 358.104C41.7253 358.104 41.8174 358.078 41.8982 358.03C42.1921 357.845 71.6998 338.878 85.0817 328.893C97.8321 319.387 114.284 305.341 115.961 303.904L172.897 299.941L197.026 358.411C197.048 358.468 197.081 358.52 197.124 358.564C198.283 359.865 199.694 360.917 201.272 361.656C201.533 361.717 201.802 361.731 202.067 361.7V361.7ZM305.355 331.985C299.562 333.423 252.121 345.226 233.763 350.964C227.546 352.902 222.134 354.688 217.768 356.103C209.057 358.945 202.829 361.003 201.653 360.567C200.266 359.901 199.023 358.969 197.995 357.824L173.757 299.08C173.714 298.974 173.638 298.884 173.54 298.823C173.442 298.762 173.328 298.734 173.213 298.743L115.7 302.761C115.584 302.771 115.474 302.817 115.384 302.891C115.21 303.044 97.7885 317.994 84.4284 327.935C71.7543 337.386 44.5767 354.916 41.5715 356.854C39.0836 355.369 37.2569 352.989 36.4648 350.202C35.4542 346.431 34.6544 342.607 34.0694 338.747C35.3742 337.438 36.8373 336.297 38.4247 335.35C39.5737 334.916 40.8059 334.749 42.0288 334.86C42.9305 334.913 43.8352 334.843 44.7183 334.653C45.8071 334.337 56.3907 324.461 83.6989 298.242C86.715 295.335 88.9471 293.201 89.8291 292.373C91.5546 290.609 93.1691 288.74 94.6635 286.776C98.0934 282.476 101.981 277.597 106.118 276.008C112.412 273.591 155.508 263.029 155.944 262.942C156.051 262.915 156.148 262.856 156.22 262.772C156.292 262.688 156.336 262.584 156.347 262.473L157.033 256.517L207.533 252.162C208.252 255.08 212.193 271.511 211.094 278.294C210.362 282.819 208.805 287.171 206.499 291.132C206.422 291.259 206.398 291.412 206.433 291.556L217.191 333.912C217.225 334.05 217.311 334.169 217.431 334.244C217.551 334.319 217.695 334.345 217.834 334.315L300.313 317.253L305.355 331.985Z" fill="#263238"/>
<path d="M207.675 214.695C207.675 214.695 206.695 239.738 206.945 240.511C207.196 241.284 209.123 250.594 207.925 251.585C206.728 252.576 162.673 258.009 160.463 258.009C158.252 258.009 156.772 258.499 156.521 256.038C156.271 253.577 156.031 251.117 156.031 251.117L142.758 199.473L146.438 162.343L205.236 167.014L207.675 214.695Z" fill="white"/>
<path d="M158.785 258.553H159.526H160.462C160.854 258.553 206.64 253.338 208.263 252.02C209.885 250.703 207.489 240.446 207.457 240.348C207.315 239.477 207.838 224.538 208.219 214.727V214.673L205.802 166.949C205.794 166.817 205.739 166.693 205.647 166.599C205.555 166.505 205.432 166.447 205.301 166.437L146.503 161.766C146.362 161.757 146.223 161.803 146.116 161.894C146.008 161.985 145.94 162.115 145.926 162.256L142.235 199.385C142.224 199.45 142.224 199.516 142.235 199.581L155.519 251.225L155.998 256.06C156.205 258.27 157.392 258.553 158.785 258.553ZM207.13 214.694C206.836 222.316 206.172 239.934 206.422 240.685C206.825 241.905 208.36 250.3 207.577 251.16C205.823 252.053 162.934 257.432 160.462 257.432H159.493C157.795 257.486 157.228 257.508 157.065 255.929L156.575 251.007L143.302 199.374L146.928 162.876L204.713 167.482L207.13 214.694Z" fill="#263238"/>
<path d="M172.44 221.173C172.524 221.173 172.607 221.152 172.683 221.115C172.758 221.077 172.824 221.023 172.875 220.956C172.918 220.898 172.948 220.832 172.965 220.762C172.982 220.693 172.985 220.62 172.974 220.55C172.963 220.479 172.938 220.411 172.9 220.35C172.863 220.289 172.814 220.235 172.756 220.193L169.87 218.016C169.814 217.964 169.747 217.924 169.675 217.9C169.602 217.876 169.526 217.867 169.449 217.874C169.373 217.881 169.3 217.905 169.233 217.942C169.166 217.98 169.108 218.031 169.063 218.093C169.018 218.154 168.986 218.225 168.969 218.3C168.953 218.374 168.953 218.452 168.968 218.527C168.984 218.602 169.015 218.672 169.06 218.734C169.104 218.796 169.162 218.848 169.228 218.887L172.113 221.064C172.206 221.137 172.322 221.176 172.44 221.173V221.173Z" fill="#263238"/>
<path d="M206.542 246.174C206.672 246.169 206.795 246.119 206.891 246.032C206.984 245.921 207.031 245.779 207.021 245.634C207.01 245.49 206.944 245.355 206.836 245.259C203.6 242.438 200.185 239.831 196.612 237.452C194.184 236.026 182.359 227.358 175.521 222.317C175.465 222.265 175.398 222.226 175.326 222.201C175.253 222.177 175.176 222.168 175.1 222.175C175.024 222.183 174.95 222.206 174.884 222.244C174.817 222.281 174.759 222.333 174.714 222.394C174.669 222.456 174.637 222.526 174.62 222.601C174.604 222.676 174.603 222.753 174.619 222.828C174.635 222.903 174.666 222.974 174.71 223.036C174.755 223.098 174.813 223.15 174.879 223.188C183.241 229.362 193.716 237.016 196.068 238.432C199.582 240.781 202.942 243.352 206.128 246.13C206.255 246.199 206.404 246.214 206.542 246.174V246.174Z" fill="#263238"/>
<path d="M194.01 233.347C194.088 233.346 194.165 233.329 194.236 233.297C194.307 233.266 194.371 233.219 194.424 233.162C194.516 233.05 194.561 232.906 194.548 232.762C194.536 232.617 194.468 232.483 194.358 232.389C186.421 225.627 170.404 208.739 170.24 208.565C170.193 208.507 170.134 208.46 170.067 208.426C170 208.392 169.927 208.372 169.852 208.368C169.777 208.363 169.703 208.374 169.632 208.4C169.562 208.426 169.498 208.466 169.444 208.518C169.39 208.57 169.347 208.632 169.318 208.701C169.289 208.771 169.275 208.845 169.276 208.92C169.277 208.995 169.294 209.068 169.325 209.137C169.356 209.205 169.401 209.266 169.456 209.316C169.609 209.49 185.669 226.422 193.661 233.216C193.757 233.302 193.881 233.348 194.01 233.347V233.347Z" fill="#263238"/>
<path d="M191.647 250.953C191.767 250.952 191.884 250.911 191.979 250.836C192.073 250.761 192.14 250.657 192.169 250.54C192.206 250.401 192.187 250.254 192.115 250.129C192.044 250.005 191.926 249.914 191.788 249.875C186.344 248.427 178.907 246.413 173.648 244.976C173.51 244.939 173.362 244.958 173.238 245.03C173.113 245.101 173.022 245.219 172.984 245.357C172.947 245.497 172.966 245.646 173.037 245.772C173.108 245.898 173.226 245.991 173.365 246.032C178.624 247.469 186.028 249.484 191.505 250.932L191.647 250.953Z" fill="#263238"/>
<path d="M170.001 245.095C170.121 245.093 170.237 245.053 170.333 244.981C170.429 244.908 170.499 244.807 170.534 244.692C170.571 244.554 170.551 244.406 170.48 244.282C170.409 244.158 170.291 244.066 170.153 244.028L164.328 242.428C164.259 242.408 164.187 242.401 164.116 242.409C164.045 242.417 163.976 242.438 163.913 242.473C163.851 242.507 163.795 242.554 163.751 242.609C163.706 242.665 163.673 242.729 163.653 242.798C163.633 242.867 163.627 242.94 163.635 243.011C163.644 243.083 163.666 243.152 163.702 243.215C163.737 243.278 163.785 243.333 163.842 243.377C163.899 243.421 163.964 243.454 164.034 243.473L169.87 245.073L170.001 245.095Z" fill="#263238"/>
<path d="M58.0894 93.1583L46.6021 74.2015C46.6021 74.2015 41.626 65.5888 41.2449 66.9281C40.9944 67.4091 40.8802 67.9494 40.9148 68.4907C40.9493 69.0319 41.1313 69.5534 41.4409 69.9986C42.2031 71.523 44.8817 80.1357 44.8817 80.1357L36.4649 71.523C36.4649 71.523 33.9715 70.1837 34.3526 71.9041C34.7337 73.6245 40.2868 80.9088 40.2868 80.9088C40.2868 80.9088 30.3347 76.8801 29.9536 78.0343C29.5725 79.1884 39.3286 85.5037 39.3286 85.5037C39.3286 85.5037 29.3765 85.8848 29.529 87.0281C29.6814 88.1714 38.1417 88.9445 38.1417 88.9445C38.1417 88.9445 39.285 91.4379 43.88 94.6827C46.4067 96.5122 49.1776 97.9783 52.1116 99.0381L58.0894 93.1583Z" fill="white"/>
<path d="M52.1554 99.6368C52.2268 99.6377 52.2976 99.6236 52.3632 99.5955C52.4289 99.5673 52.4879 99.5258 52.5365 99.4735L58.4816 93.5937C58.5664 93.5073 58.6199 93.395 58.6337 93.2747C58.6475 93.1544 58.6208 93.033 58.5578 92.9295L47.0705 73.9728C42.5409 66.144 41.6263 66.2637 41.3105 66.3509C41.1698 66.3694 41.0382 66.4304 40.9331 66.5257C40.8281 66.621 40.7546 66.7462 40.7226 66.8844L40.6137 67.2437C40.4084 67.7466 40.3318 68.2927 40.3907 68.8326C40.4496 69.3726 40.6423 69.8893 40.9512 70.336C41.4521 71.3378 42.8349 75.5734 43.6733 78.2301L36.8462 71.2398L36.7156 71.1418C36.1929 70.8587 34.8863 70.2598 34.1677 70.8042C33.9813 70.9614 33.8479 71.1723 33.7855 71.408C33.7232 71.6437 33.735 71.8929 33.8193 72.1217C34.1241 73.461 37.0096 77.5659 38.6973 79.7436C35.5614 78.5459 30.9665 76.9453 29.8668 77.4571C29.7675 77.5006 29.6778 77.5634 29.603 77.6419C29.5282 77.7204 29.4698 77.813 29.4312 77.9144C29.3114 78.2846 28.9521 79.3517 37.6302 85.0899C34.5161 85.2641 29.9321 85.6669 29.2026 86.5598C29.1332 86.644 29.082 86.7416 29.052 86.8465C29.022 86.9514 29.014 87.0614 29.0284 87.1695C29.0937 87.5615 29.2897 88.7157 37.8371 89.5106C39.3517 91.7769 41.316 93.7078 43.608 95.1834C46.1743 97.0684 48.9978 98.5754 51.9921 99.6586C52.0474 99.6618 52.1029 99.6544 52.1554 99.6368V99.6368ZM57.4036 93.1038L52.0139 98.548C49.2533 97.4808 46.6406 96.0646 44.2395 94.3341C39.8841 91.22 38.6864 88.8246 38.6755 88.8028C38.6338 88.7168 38.571 88.6427 38.4929 88.5875C38.4149 88.5322 38.3241 88.4977 38.2291 88.487C35.5667 88.3224 32.9304 87.866 30.3676 87.126C33.3213 86.4961 36.3307 86.1641 39.3506 86.1351C39.4675 86.1304 39.5798 86.089 39.6717 86.0166C39.7636 85.9443 39.8304 85.8448 39.8624 85.7323C39.8915 85.62 39.8839 85.5013 39.8408 85.3935C39.7977 85.2858 39.7213 85.1947 39.6228 85.1334C35.8228 82.6726 31.6307 79.6239 30.6725 78.4479C32.0662 78.5459 36.3889 80.005 40.0801 81.4967C40.1916 81.5409 40.3145 81.5479 40.4303 81.5165C40.5462 81.4851 40.6487 81.417 40.7226 81.3225C40.7958 81.2273 40.8356 81.1105 40.8356 80.9904C40.8356 80.8702 40.7958 80.7535 40.7226 80.6583C38.5449 77.7728 35.1477 73.0364 34.8863 71.8822C34.8669 71.7925 34.8669 71.6997 34.8863 71.61C35.3294 71.6868 35.7564 71.8378 36.1494 72.0564L44.49 80.5276C44.5745 80.616 44.6864 80.6733 44.8075 80.6904C44.9287 80.7074 45.052 80.6832 45.1577 80.6215C45.2633 80.5599 45.3452 80.4644 45.39 80.3506C45.4348 80.2368 45.4399 80.1112 45.4046 79.9941C45.2957 79.6348 42.7042 71.2833 41.9203 69.7589C41.365 68.6701 41.3758 68.4414 41.6154 67.5812C43.2951 69.7525 44.8058 72.0495 46.1341 74.4518L57.4036 93.1038Z" fill="#263238"/>
<path d="M52.917 88.3679C49.6679 87.7027 46.5611 86.4717 43.738 84.7312C39.7093 82.0526 36.1161 79.7552 36.1161 81.0944C36.1161 82.4337 40.7111 86.2664 41.2881 86.6475C41.8652 87.0286 42.8234 89.9141 44.7398 92.3966C46.6561 94.8792 51.8172 96.9807 51.8172 96.9807" fill="white"/>
<path d="M51.7739 97.524C51.8821 97.5265 51.9883 97.4953 52.078 97.4349C52.1677 97.3744 52.2365 97.2876 52.2748 97.1864C52.3289 97.0535 52.3285 96.9046 52.2734 96.772C52.2183 96.6395 52.1132 96.5341 51.9808 96.4787C51.9263 96.4787 46.9285 94.399 45.1211 92.058C44.2039 90.8028 43.4056 89.465 42.7365 88.0619C42.1812 86.9731 41.8981 86.4286 41.5496 86.2C40.5588 85.5358 37.0092 82.3346 36.6499 81.2566C37.804 81.4308 41.8545 84.1312 43.4334 85.1874C46.3143 86.9772 49.4934 88.2349 52.8192 88.9003C52.8901 88.9161 52.9636 88.9172 53.0349 88.9036C53.1063 88.8899 53.1742 88.8619 53.2343 88.8211C53.2945 88.7803 53.3457 88.7277 53.3847 88.6664C53.4238 88.6051 53.45 88.5365 53.4616 88.4648C53.4871 88.3233 53.4556 88.1776 53.374 88.0593C53.2924 87.941 53.1673 87.8597 53.0261 87.8332C49.8447 87.1813 46.8013 85.9801 44.0322 84.2836C38.6751 80.7013 36.8676 79.7976 35.9857 80.2767C35.8422 80.3581 35.7237 80.4772 35.643 80.6212C35.5624 80.7651 35.5228 80.9284 35.5283 81.0933C35.5283 82.9008 40.8855 87.0602 40.9726 87.1037C41.2967 87.5572 41.5739 88.0424 41.8001 88.5519C42.4925 90.0204 43.3277 91.4172 44.2936 92.7222C46.2753 95.2918 51.3819 97.4042 51.5997 97.4913C51.6561 97.5097 51.7147 97.5206 51.7739 97.524V97.524Z" fill="#263238"/>
<path d="M63.2612 96.5988L57.131 91.2417L49.8576 100.617L55.4107 105.408L63.2612 96.5988Z" fill="white"/>
<path d="M55.4108 105.952C55.4871 105.951 55.5625 105.934 55.6319 105.902C55.7013 105.87 55.7632 105.824 55.8136 105.767L63.6642 96.9691C63.7132 96.9146 63.7509 96.851 63.7752 96.7818C63.7995 96.7127 63.8099 96.6394 63.8057 96.5662C63.8011 96.4953 63.7823 96.426 63.7506 96.3624C63.7188 96.2989 63.6746 96.2423 63.6207 96.196L57.4905 90.828C57.4338 90.7796 57.368 90.7431 57.2969 90.7206C57.2258 90.6982 57.1509 90.6902 57.0767 90.6974C56.9322 90.7188 56.8005 90.7924 56.7065 90.9042L49.433 100.29C49.3889 100.343 49.3559 100.405 49.3359 100.471C49.3158 100.538 49.3091 100.607 49.3162 100.676C49.3233 100.745 49.344 100.812 49.3772 100.873C49.4103 100.934 49.4552 100.987 49.5092 101.03L55.0514 105.821C55.1524 105.905 55.2795 105.951 55.4108 105.952V105.952ZM62.4883 96.6533L55.3563 104.645L50.609 100.551L57.2074 92.0366L62.4883 96.6533Z" fill="#263238"/>
<path d="M152.449 174.506C152.449 174.506 152.645 178.154 147.854 191.165C143.045 205.045 138.957 219.165 135.605 233.467C134.844 236.867 134.395 240.329 134.265 243.811C134.265 243.811 128.331 228.872 128.527 213.563C128.723 198.254 137.521 176.803 137.521 176.803C137.521 176.803 104.594 154.602 98.8562 149.822C93.118 145.042 54.2136 106.943 54.2136 106.943L63.2075 96.5991L107.611 127.805L145.383 146.947C145.383 146.947 153.004 151.303 154.191 153.48C155.378 155.658 157.055 162.474 156.674 164.576C156.293 166.677 152.449 174.506 152.449 174.506Z" fill="#232323"/>
<path d="M134.276 244.355H134.385C134.508 244.329 134.618 244.263 134.698 244.165C134.777 244.068 134.82 243.947 134.82 243.821C134.957 240.377 135.401 236.951 136.149 233.586C139.5 219.311 143.581 205.217 148.376 191.361C152.732 179.655 152.993 175.463 153.004 174.647C153.505 173.634 156.837 166.698 157.207 164.662C157.632 162.376 155.813 155.309 154.659 153.207C153.505 151.106 146.449 146.947 145.654 146.489L107.915 127.347L63.5773 96.1847C63.4652 96.1101 63.3302 96.0779 63.1965 96.0938C63.0628 96.1098 62.9392 96.1729 62.8478 96.2718L53.854 106.616C53.7581 106.715 53.7046 106.848 53.7046 106.986C53.7046 107.124 53.7581 107.257 53.854 107.356C54.235 107.737 92.791 145.52 98.4966 150.268C103.941 154.797 133.046 174.483 136.846 177.042C135.626 180.113 128.135 199.516 127.972 213.584C127.776 228.828 133.688 243.886 133.753 244.071C133.804 244.164 133.88 244.24 133.973 244.291C134.065 244.341 134.171 244.363 134.276 244.355ZM151.915 174.538C151.915 174.538 152.002 178.338 147.353 190.979C142.517 204.884 138.403 219.028 135.027 233.357C134.489 235.921 134.093 238.513 133.84 241.121C132.196 236.254 128.886 224.951 129.028 213.573C129.213 198.536 137.891 177.227 137.978 177.01C138.027 176.895 138.034 176.767 137.998 176.648C137.962 176.528 137.886 176.425 137.782 176.356C137.455 176.138 104.812 154.111 99.1607 149.396C93.7927 144.932 58.9388 110.808 54.9537 106.932L63.2942 97.3497L107.305 128.273L145.077 147.447C147.146 148.645 152.775 152.119 153.657 153.741C154.746 155.81 156.434 162.582 156.085 164.477C155.737 166.372 151.959 174.211 151.915 174.277C151.898 174.363 151.898 174.452 151.915 174.538V174.538Z" fill="#263238"/>
<path d="M142.127 197.84C142.247 197.839 142.364 197.797 142.459 197.722C142.553 197.648 142.62 197.543 142.649 197.426C142.649 197.317 142.878 196.958 143.041 196.642C143.313 196.141 143.684 195.455 144.032 194.639C144.07 194.573 144.094 194.499 144.102 194.423C144.11 194.347 144.102 194.27 144.078 194.197C144.054 194.124 144.015 194.058 143.964 194.001C143.912 193.944 143.85 193.899 143.78 193.868C143.71 193.837 143.634 193.822 143.557 193.822C143.481 193.823 143.405 193.839 143.336 193.871C143.266 193.903 143.204 193.948 143.153 194.006C143.102 194.063 143.064 194.13 143.041 194.203C142.704 194.987 142.344 195.641 142.083 196.12C141.887 196.467 141.723 196.831 141.593 197.208C141.56 197.35 141.584 197.499 141.659 197.623C141.734 197.747 141.855 197.837 141.996 197.873L142.127 197.84Z" fill="#263238"/>
<path d="M144.152 193.343C144.267 193.343 144.378 193.306 144.471 193.237C144.563 193.169 144.63 193.072 144.663 192.962C145.111 191.576 145.343 190.129 145.349 188.672C145.261 185.388 144.834 182.123 144.075 178.927L151.087 173.014C151.178 172.936 151.241 172.83 151.265 172.713C151.29 172.595 151.275 172.473 151.222 172.365C151.17 172.257 151.084 172.169 150.977 172.116C150.87 172.062 150.748 172.045 150.63 172.067L145.338 173.156L151.817 158.043C151.875 157.91 151.877 157.76 151.824 157.625C151.771 157.49 151.667 157.382 151.534 157.324C151.401 157.266 151.251 157.264 151.116 157.317C150.981 157.37 150.873 157.474 150.815 157.607L143.923 173.689C143.883 173.781 143.869 173.882 143.882 173.981C143.896 174.08 143.936 174.173 143.999 174.251C144.062 174.328 144.145 174.387 144.239 174.421C144.333 174.454 144.435 174.461 144.533 174.441L148.725 173.548L143.117 178.273C143.038 178.337 142.98 178.423 142.949 178.52C142.918 178.616 142.916 178.72 142.943 178.818C143.711 182.032 144.153 185.315 144.26 188.617C144.257 189.963 144.044 191.3 143.629 192.581C143.607 192.649 143.599 192.72 143.606 192.791C143.612 192.862 143.633 192.931 143.666 192.994C143.7 193.057 143.745 193.113 143.801 193.158C143.856 193.203 143.92 193.236 143.988 193.256L144.152 193.343Z" fill="#263238"/>
<path d="M125.228 148.341C125.3 148.356 125.374 148.356 125.446 148.341C125.511 148.314 125.57 148.273 125.62 148.223C125.67 148.172 125.709 148.112 125.736 148.046C125.762 147.981 125.775 147.91 125.774 147.839C125.773 147.768 125.757 147.698 125.729 147.633L124.074 143.713C124.045 143.647 124.004 143.588 123.952 143.538C123.901 143.488 123.84 143.448 123.773 143.422C123.706 143.396 123.635 143.383 123.563 143.384C123.491 143.386 123.421 143.401 123.355 143.43C123.289 143.457 123.23 143.498 123.18 143.548C123.13 143.599 123.091 143.659 123.065 143.725C123.038 143.79 123.025 143.861 123.027 143.932C123.028 144.003 123.043 144.073 123.072 144.138L124.727 148.058C124.776 148.147 124.848 148.221 124.937 148.271C125.025 148.321 125.126 148.345 125.228 148.341Z" fill="#263238"/>
<path d="M137.531 177.348H137.64C137.763 177.323 137.873 177.256 137.953 177.159C138.032 177.061 138.075 176.94 138.075 176.814L138.457 151.161C138.457 151.017 138.399 150.878 138.297 150.776C138.195 150.674 138.057 150.617 137.912 150.617C137.768 150.617 137.629 150.674 137.527 150.776C137.425 150.878 137.368 151.017 137.368 151.161L137.03 174.234L127.318 151.368C127.258 151.241 127.151 151.141 127.019 151.091C126.888 151.041 126.742 151.044 126.613 151.099C126.483 151.153 126.38 151.256 126.324 151.386C126.269 151.515 126.266 151.661 126.316 151.793L137.03 177.032C137.073 177.128 137.144 177.21 137.233 177.266C137.322 177.322 137.426 177.351 137.531 177.348V177.348Z" fill="#263238"/>
<path d="M169.805 176.106L163.196 184.676C161.407 183.975 159.812 182.855 158.547 181.409C155.868 178.73 153.189 173.014 152.83 171.936C152.471 170.858 156.216 167.646 156.216 167.646L174.095 168.365L169.805 176.106Z" fill="#263238"/>
<path d="M163.195 185.22C163.277 185.219 163.358 185.2 163.431 185.164C163.504 185.129 163.569 185.077 163.62 185.013L170.229 176.433C170.233 176.412 170.233 176.39 170.229 176.368L174.563 168.724C174.611 168.644 174.636 168.551 174.636 168.458C174.636 168.364 174.611 168.272 174.563 168.191C174.518 168.111 174.454 168.044 174.375 167.996C174.297 167.949 174.208 167.922 174.117 167.919L156.238 167.2C156.171 167.196 156.103 167.206 156.04 167.228C155.976 167.251 155.918 167.286 155.868 167.331C154.365 168.626 151.893 170.967 152.307 172.209C152.721 173.45 155.454 179.177 158.154 181.888C159.495 183.38 161.171 184.533 163.043 185.253L163.195 185.22ZM169.347 175.802L163 184.033C161.47 183.312 160.089 182.312 158.927 181.083C156.39 178.535 153.712 172.906 153.341 171.817C153.341 171.381 154.724 169.737 156.412 168.256L173.18 168.931L169.347 175.802Z" fill="#263238"/>
<path d="M167.279 112.268C167.279 112.268 157.087 116.449 156.39 118.289C155.851 120.205 155.461 122.16 155.225 124.136C155.225 124.136 144.021 127.816 144.522 130.146C145.023 132.477 148.877 134.992 148.877 134.992C147.778 137.934 146.886 140.951 146.21 144.018C145.535 147.699 145.872 149.539 147.048 151.705C147.892 153.15 149.027 154.403 150.38 155.386C150.38 155.386 154.735 165.076 156.401 170.085C158.067 175.094 158.906 177.609 161.41 176.618C162.856 176.074 164.128 175.148 165.09 173.94C165.09 173.94 169.446 164.587 172.777 161.244C174.855 159.162 177.151 157.312 179.626 155.723C180.127 155.397 182.632 154.057 182.632 151.88C182.632 149.702 179.626 147.709 179.626 147.709C179.626 147.709 187.814 147.535 189.154 137.344C190.493 127.152 180.966 117.799 177.46 114.957C173.953 112.115 167.279 112.268 167.279 112.268Z" fill="white"/>
<path d="M160.441 177.37C160.853 177.359 161.259 177.27 161.638 177.108C163.18 176.526 164.535 175.536 165.558 174.245C165.645 174.07 169.914 164.848 173.18 161.614C175.167 159.618 177.357 157.833 179.713 156.29L180.072 156.061C180.911 155.538 183.143 154.145 183.143 151.869C183.143 150.323 181.88 148.896 180.965 148.047C183.448 147.503 188.653 145.412 189.676 137.409C191.211 125.758 179.169 115.632 177.786 114.543C174.16 111.614 167.518 111.745 167.235 111.745H167.039C165.308 112.464 156.597 116.1 155.878 118.082C155.339 119.92 154.953 121.799 154.724 123.701C151.675 124.724 143.455 127.729 143.999 130.234C144.446 132.335 147.266 134.458 148.213 135.177C147.155 138.016 146.304 140.927 145.665 143.888C145.012 147.459 145.24 149.484 146.558 151.934C147.41 153.41 148.56 154.693 149.933 155.702C150.467 156.888 154.289 165.61 155.878 170.227C157.163 174.092 157.936 176.422 159.45 177.13C159.759 177.28 160.097 177.361 160.441 177.37V177.37ZM164.622 173.7C163.706 174.764 162.543 175.587 161.235 176.096C161.038 176.202 160.82 176.264 160.596 176.277C160.372 176.291 160.148 176.255 159.94 176.172C158.851 175.671 158.056 173.254 156.935 169.911C155.28 164.935 150.946 155.255 150.902 155.157C150.859 155.071 150.796 154.996 150.717 154.939C149.438 153.998 148.36 152.81 147.549 151.444C146.46 149.506 146.09 147.84 146.765 144.116C147.438 141.082 148.322 138.099 149.411 135.188C149.453 135.073 149.456 134.947 149.419 134.831C149.381 134.714 149.305 134.614 149.204 134.545C148.18 133.881 145.458 131.769 145.088 130.038C144.881 129.047 149.705 126.532 155.421 124.648C155.519 124.616 155.605 124.557 155.671 124.478C155.736 124.399 155.778 124.303 155.791 124.201C156.025 122.266 156.408 120.351 156.935 118.474C157.294 117.472 162.52 114.816 167.398 112.812C168.204 112.812 174.04 112.812 177.133 115.371C178.461 116.46 190.079 126.205 188.631 137.268C187.379 146.849 179.92 147.143 179.637 147.154C179.523 147.158 179.412 147.197 179.322 147.267C179.231 147.337 179.165 147.434 179.132 147.544C179.1 147.653 179.103 147.77 179.14 147.878C179.178 147.986 179.249 148.08 179.343 148.145C180.116 148.668 182.109 150.323 182.109 151.869C182.109 153.415 180.247 154.7 179.55 155.135L179.169 155.375C176.731 156.944 174.468 158.769 172.418 160.819C169.042 164.195 164.796 173.265 164.622 173.678V173.7Z" fill="#263238"/>
<path d="M157.381 125.845C156.782 126.88 156.641 127.925 157.076 128.186C157.512 128.448 158.361 127.805 158.971 126.771C159.581 125.737 159.711 124.691 159.276 124.43C158.84 124.169 157.991 124.811 157.381 125.845Z" fill="#263238"/>
<path d="M162.608 124.68H162.706C162.847 124.653 162.972 124.572 163.054 124.454C163.135 124.336 163.167 124.19 163.141 124.048C162.909 123.053 162.358 122.161 161.572 121.508C160.785 120.856 159.807 120.478 158.786 120.433C158.714 120.426 158.642 120.433 158.573 120.454C158.505 120.475 158.441 120.509 158.385 120.554C158.329 120.6 158.283 120.656 158.249 120.719C158.215 120.782 158.194 120.852 158.187 120.923C158.18 120.995 158.187 121.067 158.208 121.136C158.228 121.205 158.263 121.269 158.308 121.324C158.354 121.38 158.41 121.426 158.473 121.46C158.536 121.494 158.606 121.515 158.677 121.522C159.459 121.549 160.211 121.831 160.818 122.324C161.425 122.818 161.855 123.496 162.042 124.255C162.068 124.383 162.14 124.497 162.244 124.575C162.348 124.653 162.478 124.691 162.608 124.68V124.68Z" fill="#263238"/>
<path d="M162.608 110.1C162.608 110.1 162.433 111.102 164.785 112.278C168.405 113.974 171.734 116.231 174.65 118.964C177.993 122.306 175.314 121.805 173.975 122.481C172.636 123.156 171.972 123.809 173.649 126.988C175.325 130.168 175.314 131.344 175.314 131.344C175.314 131.344 164.785 140.37 162.945 141.873C162.417 142.311 161.799 142.628 161.135 142.802C160.471 142.975 159.777 143 159.102 142.875C159.102 142.875 152.253 136.69 150.587 135.852L148.91 135.013C148.91 135.013 146.406 136.527 145.066 141.372C143.727 146.217 141.724 152.892 143.063 154.438C144.402 155.984 151.926 156.104 159.396 155.102C166.865 154.101 168.923 149.092 169.761 146.751C170.6 144.41 174.433 136.559 176.61 135.383C178.788 134.207 181.793 136.385 180.116 140.904C178.439 145.423 171.928 146.413 171.765 147.078C171.602 147.742 173.267 150.595 176.774 152.097C180.28 153.6 181.956 152.598 182.621 151.923C183.285 151.248 186.301 153.099 195.153 141.906C204.006 130.712 203.516 129.035 202.677 126.357C201.839 123.678 192.986 109.153 187.433 105.31C181.88 101.466 179.245 101.303 178.723 102.968C178.421 103.948 178.421 104.995 178.723 105.974C178.723 105.974 174.215 99.1249 166.528 102.468C158.84 105.81 162.608 110.1 162.608 110.1Z" fill="#263238"/>
<path d="M150.478 156.224C153.497 156.206 156.512 155.995 159.504 155.593C167.573 154.504 169.554 148.962 170.306 146.882C171.264 144.181 175.042 136.81 176.893 135.808C177.254 135.61 177.668 135.529 178.078 135.575C178.487 135.622 178.872 135.795 179.18 136.07C180.203 136.952 180.377 138.672 179.637 140.654C178.548 143.659 175.075 145.009 173.017 145.804C171.928 146.239 171.383 146.435 171.264 146.893C171.002 147.982 173.017 151.009 176.588 152.544C180.345 154.155 182.25 153.056 183.045 152.261L183.415 152.195C184.896 151.945 188.337 151.379 195.61 142.189C204.669 130.745 204.125 129.014 203.232 126.15C202.339 123.287 193.313 108.642 187.814 104.809C183.873 102.065 181.063 100.954 179.484 101.542C179.196 101.638 178.936 101.803 178.727 102.023C178.518 102.244 178.367 102.512 178.287 102.805C178.15 103.273 178.069 103.756 178.047 104.243C176.599 102.675 174.69 101.609 172.595 101.198C170.501 100.787 168.33 101.052 166.397 101.956C163.446 103.241 161.725 104.842 161.29 106.714C161.159 107.337 161.16 107.981 161.293 108.604C161.426 109.227 161.688 109.814 162.063 110.329C162.128 110.819 162.52 111.799 164.535 112.801C168.104 114.463 171.383 116.687 174.247 119.389C175.782 120.913 175.706 121.327 175.706 121.338C175.436 121.5 175.136 121.607 174.824 121.653C174.45 121.74 174.085 121.864 173.735 122.024C173.393 122.149 173.081 122.345 172.818 122.598C172.556 122.851 172.349 123.156 172.211 123.493C171.928 124.343 172.211 125.475 173.158 127.272C173.861 128.481 174.392 129.782 174.737 131.137C173.202 132.455 164.273 140.109 162.607 141.47C162.156 141.841 161.633 142.114 161.071 142.272C160.508 142.429 159.919 142.468 159.341 142.385C158.404 141.557 152.427 136.2 150.804 135.384L149.138 134.556C149.059 134.51 148.969 134.486 148.877 134.486C148.785 134.486 148.695 134.51 148.616 134.556C148.507 134.621 145.905 136.222 144.522 141.22L144.206 142.309C142.453 148.635 141.31 153.197 142.638 154.722C143.574 155.789 146.667 156.224 150.478 156.224ZM177.862 134.447C177.346 134.447 176.837 134.574 176.381 134.817C173.91 136.146 169.957 144.617 169.282 146.479C168.607 148.341 166.778 153.491 159.363 154.471C151.087 155.56 144.467 155.113 143.466 153.981C142.464 152.849 144.141 146.664 145.273 142.592L145.589 141.503C146.074 139.248 147.25 137.2 148.953 135.645L150.325 136.331C151.643 136.984 156.858 141.557 158.731 143.267C158.797 143.324 158.876 143.364 158.96 143.387C159.721 143.543 160.508 143.527 161.261 143.338C162.015 143.15 162.717 142.794 163.315 142.298C165.134 140.806 175.586 131.856 175.695 131.769C175.753 131.716 175.799 131.652 175.831 131.581C175.863 131.51 175.88 131.433 175.88 131.355C175.88 131.224 175.88 129.961 174.149 126.76C173.387 125.301 173.06 124.343 173.267 123.809C173.365 123.515 173.616 123.297 174.247 122.982C174.532 122.862 174.827 122.767 175.129 122.699C175.815 122.524 176.588 122.328 176.784 121.61C176.98 120.891 176.479 120.02 175.053 118.594C172.104 115.814 168.73 113.523 165.057 111.81C163.217 110.885 163.184 110.177 163.184 110.166C163.193 110.095 163.186 110.023 163.164 109.955C163.141 109.887 163.103 109.825 163.054 109.774C162.746 109.375 162.528 108.916 162.413 108.425C162.298 107.935 162.29 107.426 162.39 106.932C162.749 105.419 164.252 104.068 166.865 102.936C174.029 99.822 178.221 105.985 178.396 106.203C178.472 106.308 178.583 106.383 178.71 106.413C178.836 106.444 178.969 106.428 179.085 106.369C179.201 106.309 179.292 106.211 179.341 106.09C179.39 105.97 179.395 105.836 179.354 105.713C179.097 104.842 179.097 103.916 179.354 103.045C179.387 102.92 179.451 102.805 179.541 102.712C179.63 102.619 179.742 102.55 179.866 102.511C180.421 102.305 182.261 102.228 187.215 105.68C192.561 109.404 201.37 123.657 202.209 126.444C202.971 128.883 203.472 130.495 194.783 141.492C187.771 150.355 184.493 150.889 183.263 151.096C182.909 151.114 182.569 151.243 182.294 151.466C181.695 152.065 180.214 152.87 177.045 151.52C174.988 150.75 173.31 149.213 172.363 147.23C172.581 147.121 173.028 146.947 173.452 146.795C175.543 145.978 179.419 144.475 180.704 141.013C181.608 138.585 181.314 136.418 179.942 135.22C179.361 134.73 178.622 134.466 177.862 134.48V134.447Z" fill="#263238"/>
<path d="M150.271 143.256C151.835 143.339 153.379 142.864 154.626 141.917C154.677 141.866 154.718 141.806 154.745 141.739C154.773 141.673 154.787 141.602 154.787 141.53C154.787 141.458 154.773 141.387 154.745 141.321C154.718 141.254 154.677 141.194 154.626 141.143C154.524 141.044 154.387 140.988 154.245 140.988C154.102 140.988 153.966 141.044 153.864 141.143C153.766 141.231 151.795 142.918 147.679 141.851C147.535 141.815 147.382 141.838 147.254 141.914C147.127 141.991 147.035 142.115 146.999 142.259C146.963 142.404 146.985 142.557 147.062 142.684C147.139 142.812 147.263 142.904 147.407 142.94C148.344 143.17 149.306 143.276 150.271 143.256V143.256Z" fill="white"/>
<path d="M184.809 156.268L190.362 159.774C190.362 159.774 212.76 159.774 214.317 161.298C215.874 162.822 258.535 200.736 258.959 202.674C259.384 204.612 272.929 250.714 272.929 250.714L258.382 256.463L238.478 212.43L213.979 199.996C213.979 199.996 214.36 206.115 219.336 214.543C224.312 222.97 240.961 240.958 240.961 240.958C240.961 240.958 223.931 226.596 213.587 221.816C203.243 217.036 196.743 219.704 188.544 209.371C180.345 199.037 175.728 190.61 175.913 182.378C176.098 174.146 184.809 156.268 184.809 156.268Z" fill="#232323"/>
<path d="M258.316 256.985C258.385 257.001 258.455 257.001 258.523 256.985L273.07 251.247C273.198 251.198 273.302 251.102 273.361 250.978C273.42 250.855 273.429 250.713 273.386 250.583C273.255 250.126 259.797 204.46 259.427 202.587C259.188 201.378 249.301 192.134 221.644 167.265C217.801 163.813 215.035 161.32 214.676 160.96C213.119 159.403 196.013 159.273 190.525 159.273L185.081 155.854C185.017 155.812 184.946 155.784 184.87 155.773C184.795 155.762 184.718 155.767 184.645 155.788C184.571 155.809 184.502 155.845 184.442 155.894C184.382 155.943 184.333 156.003 184.297 156.071C183.938 156.801 175.445 174.135 175.249 182.389C175.074 190.109 178.885 198.286 187.999 209.73C193.541 216.687 198.343 217.885 203.918 219.257C207.132 219.961 210.265 220.99 213.271 222.328C223.43 227.031 240.361 241.252 240.492 241.393C240.598 241.481 240.733 241.525 240.87 241.517C241.008 241.509 241.137 241.449 241.232 241.35C241.327 241.251 241.381 241.119 241.383 240.982C241.385 240.845 241.335 240.711 241.243 240.609C241.08 240.424 224.573 222.556 219.684 214.281C217.163 210.196 215.414 205.682 214.523 200.964L237.944 212.855L257.772 256.713C257.824 256.809 257.904 256.886 258.002 256.935C258.099 256.983 258.209 257.001 258.316 256.985V256.985ZM272.221 250.387L258.621 255.755L238.924 212.201C238.882 212.086 238.796 211.992 238.685 211.94L214.175 199.495C214.089 199.452 213.994 199.433 213.899 199.44C213.803 199.446 213.712 199.477 213.632 199.53C213.553 199.583 213.489 199.656 213.446 199.741C213.404 199.827 213.385 199.922 213.391 200.017C213.391 200.268 213.837 206.365 218.835 214.804C222.156 220.433 230.507 230.135 235.832 236.123C229.919 231.463 220.436 224.385 213.783 221.304C210.711 219.947 207.512 218.896 204.234 218.168C198.855 216.84 194.216 215.686 188.914 209.022C179.963 197.785 176.218 189.826 176.392 182.378C176.566 175.159 183.611 160.111 185.103 157.062L190.144 160.242C190.228 160.296 190.326 160.326 190.427 160.329C201.228 160.329 212.988 160.841 213.979 161.701C214.349 162.071 216.984 164.445 220.98 168.038C231.934 177.837 257.576 200.954 258.436 202.826C258.73 204.59 270.686 245.204 272.221 250.387Z" fill="#263238"/>
<path d="M213.914 200.518H214.045C214.114 200.5 214.179 200.469 214.237 200.426C214.294 200.383 214.342 200.329 214.379 200.267C214.415 200.206 214.439 200.137 214.449 200.066C214.459 199.995 214.455 199.923 214.437 199.854C214.437 199.854 213.141 194.671 214.262 186.276C214.281 186.132 214.242 185.986 214.153 185.87C214.064 185.755 213.933 185.68 213.789 185.661C213.644 185.642 213.498 185.681 213.383 185.77C213.268 185.859 213.192 185.99 213.174 186.134C212.085 194.758 213.326 199.908 213.38 200.126C213.414 200.241 213.484 200.342 213.581 200.413C213.677 200.483 213.794 200.52 213.914 200.518Z" fill="#263238"/>
<path d="M191.647 211.047C191.751 211.044 191.852 211.014 191.941 210.96C192.062 210.882 192.147 210.76 192.18 210.62C192.212 210.48 192.189 210.332 192.115 210.209C192.115 210.209 191.31 208.913 190.155 206.943C190.083 206.817 189.964 206.725 189.824 206.687C189.684 206.65 189.535 206.669 189.41 206.741C189.284 206.813 189.192 206.932 189.154 207.072C189.117 207.212 189.136 207.361 189.208 207.487C190.384 209.501 191.19 210.754 191.19 210.754C191.234 210.838 191.299 210.91 191.379 210.962C191.459 211.013 191.552 211.043 191.647 211.047Z" fill="#263238"/>
<path d="M188.38 205.331C188.477 205.333 188.571 205.307 188.653 205.255C188.716 205.221 188.771 205.175 188.816 205.119C188.861 205.062 188.894 204.998 188.914 204.929C188.933 204.86 188.938 204.787 188.929 204.716C188.919 204.645 188.896 204.576 188.859 204.515C186.921 201.052 185.353 197.982 184.188 195.347C181.248 188.737 185.495 177.696 185.538 177.577C185.568 177.508 185.583 177.434 185.583 177.359C185.583 177.284 185.568 177.21 185.538 177.141C185.506 177.074 185.46 177.015 185.404 176.966C185.348 176.918 185.282 176.881 185.212 176.858L182.065 175.9L186.649 173.461C186.718 173.422 186.778 173.369 186.825 173.305C186.872 173.241 186.905 173.168 186.921 173.091L189.415 160.841C189.429 160.771 189.429 160.699 189.416 160.629C189.402 160.558 189.375 160.492 189.336 160.432C189.296 160.372 189.245 160.321 189.186 160.281C189.127 160.241 189.06 160.213 188.99 160.199C188.92 160.183 188.847 160.181 188.777 160.194C188.706 160.207 188.638 160.234 188.578 160.274C188.518 160.314 188.467 160.365 188.427 160.425C188.388 160.485 188.361 160.553 188.348 160.623L185.909 172.601L180.388 175.54C180.294 175.592 180.216 175.669 180.166 175.764C180.116 175.859 180.094 175.967 180.105 176.074C180.117 176.18 180.159 176.281 180.227 176.364C180.294 176.447 180.384 176.509 180.486 176.542L184.341 177.718C183.481 180.103 180.443 189.543 183.252 195.771C184.428 198.417 186.018 201.531 187.977 205.026C188.016 205.105 188.072 205.174 188.142 205.227C188.212 205.28 188.294 205.316 188.38 205.331V205.331Z" fill="#263238"/>
<path d="M272.864 250.703L275.172 257.737L262.27 263.04L260.658 255.897L272.864 250.703Z" fill="white"/>
<path d="M262.269 263.584C262.337 263.6 262.408 263.6 262.476 263.584L275.379 258.292C275.506 258.239 275.609 258.141 275.667 258.016C275.725 257.891 275.735 257.749 275.695 257.617L273.386 250.573C273.363 250.501 273.324 250.435 273.274 250.378C273.223 250.322 273.161 250.277 273.092 250.246C273.024 250.214 272.95 250.197 272.875 250.197C272.799 250.197 272.725 250.214 272.657 250.246L260.451 255.44C260.333 255.49 260.237 255.579 260.177 255.692C260.118 255.805 260.099 255.935 260.124 256.06L261.747 263.203C261.762 263.28 261.794 263.352 261.841 263.414C261.888 263.477 261.949 263.527 262.019 263.562C262.099 263.591 262.185 263.598 262.269 263.584V263.584ZM274.497 257.432L262.661 262.289L261.289 256.224L272.537 251.476L274.497 257.432Z" fill="#263238"/>
<path d="M280.399 269.529L284.024 276.476L281.716 277.685L279.582 273.602L263.184 282.171L265.318 286.254L262.999 287.463L259.373 280.527L280.399 269.529Z" fill="#263238"/>
<path d="M262.999 288.007C263.085 288.006 263.171 287.987 263.25 287.952L265.569 286.733C265.695 286.666 265.79 286.551 265.833 286.415C265.875 286.278 265.863 286.13 265.797 286.003L263.914 282.399L279.354 274.342L281.226 277.946C281.297 278.075 281.413 278.172 281.553 278.218C281.686 278.271 281.834 278.271 281.967 278.218L284.286 277.009C284.41 276.94 284.503 276.826 284.546 276.69C284.588 276.554 284.577 276.408 284.515 276.28L280.889 269.333C280.819 269.204 280.702 269.107 280.562 269.061C280.429 269.012 280.282 269.012 280.148 269.061L259.155 280.036C259.092 280.07 259.035 280.115 258.989 280.171C258.942 280.226 258.908 280.29 258.886 280.359C258.865 280.428 258.858 280.5 258.865 280.572C258.872 280.644 258.893 280.713 258.927 280.777L262.553 287.713C262.619 287.841 262.732 287.939 262.868 287.985L262.999 288.007ZM264.6 286.025L263.25 286.733L260.125 280.755L280.192 270.269L283.317 276.247L281.967 276.944L280.083 273.351C280.051 273.287 280.006 273.231 279.952 273.185C279.898 273.139 279.835 273.104 279.767 273.083C279.699 273.061 279.627 273.054 279.556 273.061C279.485 273.067 279.416 273.088 279.354 273.122L262.956 281.691C262.891 281.723 262.833 281.767 262.787 281.821C262.74 281.875 262.705 281.939 262.683 282.007C262.629 282.14 262.629 282.288 262.683 282.421L264.6 286.025Z" fill="#263238"/>
<path d="M242.508 297.562L304 265.429C307.203 263.755 311.156 264.995 312.83 268.198L336.643 313.766C338.316 316.969 337.077 320.923 333.874 322.597L272.382 354.73C269.179 356.404 265.225 355.164 263.552 351.961L239.739 306.393C238.065 303.189 239.305 299.236 242.508 297.562Z" fill="#A3A3A3"/>
<path d="M269.379 356.005C270.517 356.002 271.637 355.726 272.646 355.199L334.133 323.057C335.799 322.187 337.051 320.692 337.615 318.899C338.178 317.106 338.007 315.163 337.138 313.497L313.314 267.929C312.884 267.104 312.295 266.372 311.581 265.775C310.868 265.178 310.043 264.727 309.155 264.449C308.267 264.171 307.333 264.071 306.406 264.154C305.48 264.237 304.578 264.502 303.754 264.934L242.256 297.066C240.592 297.94 239.342 299.438 238.78 301.232C238.219 303.027 238.392 304.97 239.262 306.637L263.075 352.205C263.68 353.35 264.586 354.309 265.694 354.979C266.803 355.648 268.073 356.003 269.369 356.005H269.379ZM307.064 265.239C308.161 265.237 309.237 265.535 310.175 266.102C311.114 266.668 311.879 267.481 312.389 268.451L336.202 314.019C336.938 315.43 337.084 317.076 336.608 318.594C336.132 320.113 335.074 321.381 333.665 322.12L272.167 354.252C271.47 354.619 270.707 354.845 269.922 354.916C269.137 354.987 268.346 354.902 267.594 354.666C266.842 354.43 266.145 354.048 265.541 353.542C264.937 353.035 264.44 352.415 264.077 351.715L240.264 306.147C239.529 304.738 239.383 303.094 239.858 301.577C240.334 300.06 241.392 298.794 242.801 298.057L304.288 265.914C305.146 265.471 306.098 265.24 307.064 265.239V265.239Z" fill="#263238"/>
<path d="M262.269 263.039L259.743 271.75C259.743 271.75 260.2 276.584 260.2 277.967C260.2 279.35 257.206 282.573 258.817 283.27C260.429 283.967 262.084 284.184 262.737 282.813C263.278 281.614 263.74 280.381 264.12 279.121L266.189 285.567C267.871 284.961 269.491 284.192 271.023 283.27C272.178 282.344 271.949 278.664 271.949 278.664C271.949 278.664 279.092 275.397 279.778 274.058C280.464 272.719 279.778 268.059 279.778 268.059L275.172 257.693L262.269 263.039Z" fill="white"/>
<path d="M266.189 286.156H266.385C268.123 285.531 269.794 284.732 271.372 283.771C272.461 282.857 272.548 280.189 272.461 279.079C274.203 278.284 279.538 275.747 280.224 274.375C280.91 273.003 280.344 268.549 280.279 268.059C280.283 268.012 280.283 267.965 280.279 267.918L275.673 257.552C275.615 257.422 275.509 257.319 275.377 257.266C275.244 257.213 275.097 257.214 274.965 257.269L262.062 262.572C261.987 262.603 261.92 262.651 261.866 262.711C261.811 262.771 261.77 262.842 261.746 262.92L259.22 271.631C259.204 271.699 259.204 271.77 259.22 271.838C259.22 271.838 259.678 276.661 259.678 278.001C259.515 278.67 259.239 279.308 258.861 279.884C258.208 281.071 257.598 282.182 257.892 283.042C257.951 283.214 258.047 283.371 258.173 283.503C258.299 283.634 258.452 283.737 258.621 283.804C261.518 285.045 262.737 284.098 263.238 283.085C263.581 282.379 263.88 281.652 264.131 280.908L265.688 285.786C265.712 285.855 265.749 285.918 265.798 285.972C265.846 286.027 265.905 286.071 265.971 286.102C266.038 286.137 266.113 286.155 266.189 286.156V286.156ZM279.255 268.266C279.505 269.987 279.734 272.97 279.255 273.852C278.776 274.734 275.107 276.661 271.633 278.207C271.533 278.255 271.45 278.331 271.394 278.426C271.338 278.521 271.311 278.631 271.317 278.741C271.404 280.156 271.241 282.378 270.599 282.889C269.285 283.702 267.891 284.377 266.439 284.904L264.545 279.002C264.504 278.895 264.433 278.801 264.341 278.733C264.248 278.666 264.137 278.627 264.022 278.621C263.906 278.622 263.793 278.66 263.7 278.731C263.608 278.802 263.541 278.901 263.51 279.013C263.14 280.239 262.689 281.44 262.16 282.606C261.997 282.933 261.507 283.913 258.894 282.813C258.785 282.813 258.763 282.726 258.763 282.693C258.621 282.302 259.242 281.169 259.645 280.418C260.135 279.695 260.462 278.874 260.603 278.011C260.603 276.716 260.222 272.567 260.146 271.849L262.726 263.454L274.889 258.456L279.255 268.266Z" fill="#263238"/>
<path d="M181.771 153.589L184.809 156.267L174.094 183.608L163.337 171.99C163.337 171.99 174.802 155.189 181.771 153.589Z" fill="white"/>
<path d="M174.095 184.153H174.226C174.316 184.136 174.401 184.096 174.472 184.037C174.542 183.978 174.596 183.902 174.629 183.815L185.354 156.474C185.394 156.37 185.402 156.255 185.374 156.145C185.347 156.036 185.287 155.938 185.201 155.865L182.163 153.186C182.097 153.132 182.02 153.093 181.937 153.072C181.854 153.052 181.768 153.05 181.684 153.066C174.585 154.7 163.424 171 162.956 171.696C162.876 171.791 162.833 171.91 162.833 172.034C162.833 172.158 162.876 172.277 162.956 172.372L173.692 183.968C173.743 184.025 173.805 184.07 173.874 184.102C173.944 184.134 174.019 184.151 174.095 184.153V184.153ZM184.167 156.42L173.899 182.552L164.099 171.903C165.765 169.519 175.511 155.886 181.663 154.144L184.167 156.42Z" fill="#263238"/>
<path d="M156.804 172.176L151.621 180.571C151.621 180.571 152.155 170.771 154.126 163.955L156.804 172.176Z" fill="white"/>
<path d="M151.578 181.115C151.67 181.115 151.761 181.091 151.841 181.045C151.921 180.999 151.988 180.933 152.035 180.854L157.218 172.459C157.261 172.392 157.289 172.316 157.298 172.236C157.308 172.157 157.299 172.077 157.272 172.001L154.594 163.781C154.568 163.665 154.5 163.564 154.403 163.495C154.307 163.427 154.188 163.397 154.071 163.41C153.955 163.411 153.842 163.45 153.749 163.52C153.657 163.591 153.59 163.69 153.559 163.802C151.599 170.575 151.033 180.44 151.033 180.538C151.027 180.659 151.061 180.78 151.13 180.88C151.199 180.98 151.299 181.055 151.414 181.093L151.578 181.115ZM156.162 172.099L152.285 178.393C152.61 174.185 153.229 170.004 154.136 165.882L156.162 172.099Z" fill="#263238"/>
<path d="M163.196 184.675C163.196 184.675 164.905 187.942 173.899 186.57C182.893 185.198 193.618 173.558 202.209 172.219C210.8 170.88 224.988 180.058 236.094 177.957C243.628 176.334 250.907 173.693 257.729 170.106L275.717 180.636C275.717 180.636 258.11 188.486 256.379 188.671C254.648 188.856 231.695 191.742 224.606 188.867C217.518 185.993 207.958 179.068 200.652 181.594C193.346 184.12 184.755 194.801 175.957 193.658C167.159 192.515 163.196 184.675 163.196 184.675Z" fill="#263238"/>
<path d="M177.361 194.29C182.544 194.29 187.487 190.729 192.278 187.288C195.327 185.111 198.212 183.02 200.88 182.105C206.107 180.32 212.759 183.673 218.639 186.635C220.686 187.724 222.624 188.639 224.421 189.368C230.627 191.883 248.615 190.13 256.074 189.259H256.466C258.219 189.063 274.148 181.986 275.956 181.18C276.049 181.141 276.129 181.076 276.187 180.993C276.245 180.91 276.278 180.813 276.283 180.712C276.291 180.611 276.269 180.51 276.221 180.421C276.172 180.332 276.099 180.259 276.01 180.211L258.066 169.638C257.985 169.592 257.893 169.568 257.799 169.568C257.706 169.568 257.614 169.592 257.533 169.638C250.741 173.186 243.505 175.808 236.017 177.434C230.148 178.523 223.441 176.443 216.951 174.407C211.442 172.687 206.226 171.054 202.154 171.685C197.799 172.36 193.084 175.496 188.119 178.817C183.154 182.138 178.265 185.35 173.822 186.047C165.427 187.299 163.685 184.457 163.663 184.425C163.59 184.308 163.475 184.223 163.342 184.187C163.209 184.152 163.067 184.168 162.945 184.233C162.824 184.298 162.731 184.407 162.687 184.538C162.642 184.668 162.649 184.811 162.705 184.936C162.879 185.263 166.952 193.027 175.935 194.203C176.408 194.264 176.884 194.293 177.361 194.29V194.29ZM204.07 180.516C202.864 180.507 201.664 180.698 200.521 181.082C197.701 182.04 194.761 184.163 191.647 186.395C186.584 190.043 181.357 193.8 176.076 193.114C171.777 192.464 167.895 190.178 165.242 186.733C166.93 187.354 169.652 187.757 173.953 187.114C178.635 186.406 183.753 182.998 188.685 179.71C193.345 176.607 198.158 173.395 202.285 172.752C206.117 172.153 211.202 173.754 216.592 175.442C223.212 177.511 230.05 179.656 236.191 178.49C243.678 176.876 250.914 174.265 257.707 170.727L274.53 180.527C267.485 183.652 257.467 187.963 256.324 188.149H255.921C248.55 189.009 230.78 190.751 224.813 188.334C223.049 187.615 221.133 186.646 219.107 185.633C214.284 183.216 208.916 180.516 204.07 180.516V180.516Z" fill="#263238"/>
</g>
<defs>
<clipPath id="clip0_166_100">
<rect width="750" height="500" fill="white" transform="matrix(-1 0 0 1 750 0)"/>
</clipPath>
</defs>
</svg>
